<svg width="24" height="25" viewBox="0 0 24 25" fill="none" xmlns="http://www.w3.org/2000/svg">
<path d="M23.7073 0.793031C23.5197 0.60556 23.2654 0.500244 23.0003 0.500244C22.7351 0.500244 22.4808 0.60556 22.2933 0.793031L12.0003 11.086L1.70727 0.793031C1.51975 0.60556 1.26544 0.500244 1.00027 0.500244C0.735111 0.500244 0.480802 0.60556 0.293275 0.793031C0.105804 0.980558 0.000488281 1.23487 0.000488281 1.50003C0.000488281 1.76519 0.105804 2.0195 0.293275 2.20703L10.5863 12.5L0.293275 22.793C0.105804 22.9806 0.000488281 23.2349 0.000488281 23.5C0.000488281 23.7652 0.105804 24.0195 0.293275 24.207C0.480802 24.3945 0.735111 24.4998 1.00027 24.4998C1.26544 24.4998 1.51975 24.3945 1.70727 24.207L12.0003 13.914L22.2933 24.207C22.4808 24.3945 22.7351 24.4998 23.0003 24.4998C23.2654 24.4998 23.5197 24.3945 23.7073 24.207C23.8947 24.0195 24.0001 23.7652 24.0001 23.5C24.0001 23.2349 23.8947 22.9806 23.7073 22.793L13.4143 12.5L23.7073 2.20703C23.8947 2.0195 24.0001 1.76519 24.0001 1.50003C24.0001 1.23487 23.8947 0.980558 23.7073 0.793031Z" fill="#7D1821"/>
</svg>
