<svg width="24" height="18" viewBox="0 0 24 18" fill="none" xmlns="http://www.w3.org/2000/svg">
<path d="M22.3186 0.931008L8.49963 14.749C8.40672 14.8423 8.29631 14.9163 8.17473 14.9668C8.05315 15.0173 7.92279 15.0433 7.79113 15.0433C7.65948 15.0433 7.52912 15.0173 7.40754 14.9668C7.28596 14.9163 7.17554 14.8423 7.08263 14.749L1.73863 9.40001C1.64572 9.30673 1.53531 9.23272 1.41373 9.18222C1.29214 9.13171 1.16179 9.10572 1.03013 9.10572C0.898479 9.10572 0.768121 9.13171 0.646539 9.18222C0.524956 9.23272 0.414542 9.30673 0.321633 9.40001C0.228356 9.49292 0.154344 9.60333 0.103842 9.72491C0.0533404 9.8465 0.0273437 9.97685 0.0273438 10.1085C0.0273437 10.2402 0.0533404 10.3705 0.103842 10.4921C0.154344 10.6137 0.228356 10.7241 0.321633 10.817L5.66763 16.162C6.23158 16.7249 6.99583 17.0411 7.79263 17.0411C8.58944 17.0411 9.35369 16.7249 9.91763 16.162L23.7356 2.34701C23.8288 2.25412 23.9026 2.14377 23.9531 2.02228C24.0035 1.90079 24.0294 1.77054 24.0294 1.63901C24.0294 1.50747 24.0035 1.37723 23.9531 1.25574C23.9026 1.13425 23.8288 1.0239 23.7356 0.931008C23.6427 0.837732 23.5323 0.763719 23.4107 0.713217C23.2891 0.662716 23.1588 0.636719 23.0271 0.636719C22.8955 0.636719 22.7651 0.662716 22.6435 0.713217C22.522 0.763719 22.4115 0.837732 22.3186 0.931008Z" fill="#B2BF06"/>
</svg>
