<svg width="16" height="17" viewBox="0 0 16 17" fill="none" xmlns="http://www.w3.org/2000/svg">
<g clip-path="url(#clip0_318_580)">
<path d="M15.4314 6.814L14.9067 6.1C14.5432 5.60529 14.0686 5.2028 13.5212 4.92491C12.9737 4.64701 12.3687 4.50148 11.7547 4.5H4.25541C3.65409 4.50157 3.06117 4.64118 2.52231 4.90806C1.98346 5.17494 1.51308 5.56197 1.14741 6.03933L0.600079 6.75533C0.155734 7.34154 -0.0531817 8.07279 0.0144266 8.80525C0.0820349 9.53772 0.421273 10.2184 0.965413 10.7133L6.29208 15.8513C6.75993 16.2686 7.36522 16.4986 7.99208 16.4973C8.63223 16.4961 9.24941 16.2587 9.72541 15.8307L15.0161 10.742C15.5633 10.2574 15.9094 9.58556 15.9863 8.85863C16.0632 8.13171 15.8652 7.40233 15.4314 6.814ZM13.8314 6.88533L14.3561 7.60133C14.4088 7.6746 14.4552 7.75221 14.4947 7.83333H11.3007C11.2525 7.51408 11.1693 7.2011 11.0527 6.9L10.6261 5.83333H11.7547C12.159 5.8341 12.5575 5.92967 12.9182 6.11237C13.2788 6.29508 13.5916 6.55982 13.8314 6.88533ZM7.99341 13.892L6.14741 9.712C6.08065 9.5352 6.03021 9.35266 5.99675 9.16667H9.96475C9.93678 9.31325 9.89755 9.45745 9.84741 9.598L7.99341 13.892ZM6.06675 7.83333C6.09463 7.71381 6.12958 7.59605 6.17141 7.48067L6.82741 5.83333H9.19008L9.81475 7.39533C9.86959 7.53796 9.91415 7.68434 9.94808 7.83333H6.06675ZM2.20741 6.84733C2.44845 6.5329 2.75844 6.27797 3.1135 6.10217C3.46855 5.92638 3.85922 5.8344 4.25541 5.83333H5.38875L4.93341 6.986C4.82356 7.25949 4.74159 7.54338 4.68875 7.83333H1.49675C1.54247 7.7391 1.59764 7.64976 1.66141 7.56667L2.20741 6.84733ZM1.87408 9.736C1.70016 9.57824 1.56353 9.38377 1.47408 9.16667H4.65541C4.69963 9.52585 4.78623 9.87853 4.91341 10.2173L6.79808 14.484L1.87408 9.736ZM9.18075 14.5093L11.0834 10.1C11.1938 9.79824 11.2708 9.48525 11.3127 9.16667H14.5334C14.4391 9.39552 14.2949 9.60049 14.1114 9.76667L9.18075 14.5093Z" fill="#343A40"/>
<path d="M8.00017 3.16667C8.17698 3.16667 8.34655 3.09643 8.47157 2.9714C8.5966 2.84638 8.66684 2.67681 8.66684 2.5V1.16667C8.66684 0.989856 8.5966 0.820286 8.47157 0.695262C8.34655 0.570238 8.17698 0.5 8.00017 0.5C7.82335 0.5 7.65378 0.570238 7.52876 0.695262C7.40373 0.820286 7.3335 0.989856 7.3335 1.16667V2.5C7.3335 2.67681 7.40373 2.84638 7.52876 2.9714C7.65378 3.09643 7.82335 3.16667 8.00017 3.16667Z" fill="#343A40"/>
<path d="M11.0352 3.09991C11.1139 3.13949 11.1997 3.16307 11.2876 3.1693C11.3754 3.17552 11.4637 3.16427 11.5472 3.13619C11.6307 3.1081 11.7078 3.06375 11.7741 3.00569C11.8403 2.94762 11.8944 2.87701 11.9332 2.79791L12.5999 1.46458C12.6789 1.30633 12.6918 1.12317 12.6358 0.95539C12.5798 0.787607 12.4595 0.648947 12.3012 0.569912C12.143 0.490878 11.9598 0.477943 11.792 0.533954C11.6242 0.589965 11.4856 0.710333 11.4065 0.868579L10.7399 2.20191C10.7001 2.28022 10.6761 2.36563 10.6694 2.45322C10.6627 2.54081 10.6734 2.62886 10.7009 2.71231C10.7283 2.79576 10.772 2.87296 10.8293 2.93948C10.8867 3.006 10.9567 3.06052 11.0352 3.09991Z" fill="#343A40"/>
<path d="M4.07004 2.79791C4.14907 2.9566 4.28791 3.07739 4.456 3.13372C4.6241 3.19004 4.80768 3.17728 4.96637 3.09825C5.12506 3.01921 5.24585 2.88038 5.30217 2.71228C5.3585 2.54418 5.34574 2.3606 5.2667 2.20191L4.60004 0.868579C4.5609 0.790224 4.50672 0.720343 4.44058 0.662928C4.37444 0.605513 4.29764 0.561688 4.21456 0.533954C4.04678 0.477943 3.86362 0.490878 3.70537 0.569912C3.54713 0.648947 3.42676 0.787607 3.37075 0.95539C3.31474 1.12317 3.32767 1.30633 3.4067 1.46458L4.07004 2.79791Z" fill="#343A40"/>
</g>
<defs>
<clipPath id="clip0_318_580">
<rect width="16" height="16" fill="white" transform="translate(0 0.5)"/>
</clipPath>
</defs>
</svg>
