<svg width="174" height="218" viewBox="0 0 174 218" fill="none" xmlns="http://www.w3.org/2000/svg">
<path d="M96.5571 38.2438C96.5571 38.2438 86.9773 30.7046 75.3971 33.097C64.7618 35.3085 54.036 43.3855 54.036 43.3855L52.6588 28.8952C52.6588 28.8952 55.0261 31.7149 56.4083 31.1218C57.7905 30.5287 57.7955 19.8482 57.7955 19.8482C57.7955 19.8482 62.9373 26.5731 65.9027 25.98C68.8681 25.387 73.0247 11.937 73.0247 11.937C73.0247 11.937 79.1566 23.6077 82.7151 23.9997C86.2736 24.3918 89.2491 16.4857 89.2491 16.4857C89.2491 16.4857 91.4254 27.1662 93.9888 27.6588C96.5521 28.1513 97.7433 23.2106 97.7433 23.2106L96.5571 38.2438Z" fill="#BCB2EF"/>
<path d="M96.2556 23.1201C96.2556 23.4184 96.3441 23.7099 96.5097 23.9579C96.6754 24.2058 96.9109 24.3991 97.1864 24.5132C97.462 24.6273 97.7651 24.6572 98.0576 24.599C98.3501 24.5408 98.6188 24.3972 98.8297 24.1864C99.0405 23.9755 99.1842 23.7068 99.2423 23.4143C99.3005 23.1218 99.2707 22.8186 99.1565 22.5431C99.0424 22.2676 98.8491 22.0321 98.6012 21.8664C98.3532 21.7007 98.0617 21.6123 97.7635 21.6123C97.3636 21.6123 96.98 21.7712 96.6973 22.0539C96.4145 22.3367 96.2556 22.7202 96.2556 23.1201Z" fill="#BCB2EF"/>
<path d="M89.2793 17.0287C90.1009 17.0287 90.767 16.3626 90.767 15.541C90.767 14.7193 90.1009 14.0532 89.2793 14.0532C88.4576 14.0532 87.7915 14.7193 87.7915 15.541C87.7915 16.3626 88.4576 17.0287 89.2793 17.0287Z" fill="#BCB2EF"/>
<path d="M72.9494 12.6204C73.8598 12.6204 74.5979 11.8823 74.5979 10.9718C74.5979 10.0613 73.8598 9.32324 72.9494 9.32324C72.0389 9.32324 71.3008 10.0613 71.3008 10.9718C71.3008 11.8823 72.0389 12.6204 72.9494 12.6204Z" fill="#BCB2EF"/>
<path d="M57.9664 20.9134C58.8769 20.9134 59.615 20.1753 59.615 19.2648C59.615 18.3543 58.8769 17.6162 57.9664 17.6162C57.056 17.6162 56.3179 18.3543 56.3179 19.2648C56.3179 20.1753 57.056 20.9134 57.9664 20.9134Z" fill="#BCB2EF"/>
<path d="M50.8645 28.1613C50.8645 28.4366 50.9462 28.7058 51.0991 28.9348C51.2521 29.1637 51.4696 29.3422 51.724 29.4475C51.9784 29.5529 52.2583 29.5805 52.5284 29.5268C52.7984 29.4731 53.0465 29.3405 53.2412 29.1457C53.4359 28.951 53.5685 28.703 53.6222 28.4329C53.6759 28.1628 53.6484 27.8829 53.543 27.6285C53.4376 27.3741 53.2592 27.1567 53.0302 27.0037C52.8013 26.8507 52.5321 26.769 52.2567 26.769C51.8875 26.769 51.5334 26.9157 51.2723 27.1768C51.0112 27.4379 50.8645 27.792 50.8645 28.1613Z" fill="#BCB2EF"/>
<path d="M96.7532 35.7809C96.7532 35.7809 96.713 35.7809 96.6476 35.7206L96.3561 35.5245C96.0947 35.3537 95.7429 35.0621 95.2403 34.7606C93.8481 33.8578 92.3699 33.0951 90.8273 32.4837C88.538 31.5826 86.1371 30.9959 83.6902 30.7397C82.2461 30.5903 80.7933 30.5433 79.3426 30.5989C77.7874 30.6684 76.2389 30.8464 74.7085 31.1317C71.7492 31.7107 68.8609 32.6072 66.0937 33.8056C63.834 34.7822 61.6397 35.9037 59.5246 37.1631C57.7151 38.2387 56.2877 39.1735 55.3127 39.8319L54.1918 40.5959L53.9003 40.7869C53.8299 40.8322 53.7948 40.8523 53.7897 40.8472C53.8172 40.8175 53.8475 40.7906 53.8802 40.7668L54.1617 40.5507C54.413 40.3697 54.7749 40.0883 55.2574 39.7515C56.2123 39.063 57.6247 38.103 59.4291 37.0073C61.5373 35.7164 63.7323 34.5727 65.9982 33.5845C68.7763 32.3652 71.6806 31.4567 74.6583 30.8754C76.2018 30.5875 77.7638 30.4095 79.3326 30.3426C80.7953 30.2917 82.2599 30.3438 83.7154 30.4984C86.1799 30.7614 88.5956 31.367 90.8927 32.2978C92.4411 32.9243 93.9174 33.7163 95.2956 34.6601C95.7982 34.9767 96.1349 35.2833 96.3862 35.4642L96.6627 35.6854C96.728 35.7507 96.7582 35.7809 96.7532 35.7809Z" fill="#263238"/>
<g opacity="0.3">
<path d="M76.2565 24.0501C76.1249 23.6345 75.8913 23.2585 75.577 22.9565C75.2627 22.6545 74.8777 22.436 74.4572 22.3211C74.1031 22.2486 73.736 22.2729 73.3946 22.3915C73.0532 22.51 72.7501 22.7183 72.5171 22.9946L72.5422 22.9494C71.9676 23.6039 71.6562 24.4483 71.6683 25.3192C71.6804 26.1901 72.015 27.0255 72.6075 27.6639C72.8402 27.9384 73.1376 28.1505 73.4728 28.2813C73.808 28.412 74.1705 28.4572 74.5275 28.4128C75.3669 28.2469 75.9147 27.4076 76.1861 26.6084C76.4826 25.7851 76.5073 24.8885 76.2565 24.0501Z" fill="black"/>
</g>
<path d="M72.9493 27.3826C72.9242 27.3826 72.7181 27.2016 72.512 26.7895C72.247 26.2449 72.1341 25.6388 72.1854 25.0354C72.2367 24.4319 72.4503 23.8536 72.8036 23.3616C73.075 22.9897 73.3062 22.8289 73.3363 22.859C73.3665 22.8892 73.1805 23.0953 72.9594 23.4722C72.6698 23.9578 72.4944 24.503 72.4465 25.0663C72.3987 25.6297 72.4795 26.1966 72.6829 26.7241C72.7846 26.9382 72.8735 27.158 72.9493 27.3826Z" fill="white"/>
<g opacity="0.3">
<path d="M63.0127 29.3677C62.8632 29.1454 62.66 28.9643 62.4219 28.8413C62.1838 28.7183 61.9185 28.6574 61.6506 28.6641C61.4332 28.6846 61.2253 28.763 61.0485 28.8912C60.8717 29.0194 60.7325 29.1926 60.6454 29.3929V29.3627C60.4219 29.8498 60.386 30.4023 60.5446 30.9143C60.7032 31.4262 61.0451 31.8617 61.5049 32.1371C61.6899 32.258 61.9021 32.331 62.1223 32.3494C62.3426 32.3678 62.5639 32.3311 62.7664 32.2427C62.9858 32.0953 63.1626 31.8927 63.2791 31.6554C63.3955 31.4181 63.4475 31.1544 63.4299 30.8907C63.4581 30.3514 63.3118 29.8174 63.0127 29.3677Z" fill="black"/>
</g>
<path d="M61.6757 31.8958C61.6757 31.8958 61.4947 31.8505 61.2887 31.6445C61.029 31.364 60.8546 31.0153 60.7861 30.6392C60.7071 30.2664 60.7385 29.8787 60.8765 29.5234C60.9821 29.252 61.1027 29.1213 61.1329 29.1364C61.0191 29.6101 60.9885 30.0998 61.0424 30.584C61.1774 31.054 61.3916 31.4977 61.6757 31.8958Z" fill="white"/>
<g opacity="0.3">
<path d="M89.5256 26.6936C89.4674 26.4325 89.345 26.19 89.1694 25.9882C88.9939 25.7863 88.7708 25.6314 88.5204 25.5375C88.3082 25.4723 88.0822 25.4664 87.8669 25.5205C87.6516 25.5745 87.4552 25.6865 87.299 25.8441C86.9148 26.2168 86.6809 26.7176 86.642 27.2515C86.6031 27.7853 86.7618 28.3148 87.0879 28.7392C87.2192 28.9161 87.3919 29.058 87.5908 29.1527C87.7897 29.2473 88.0088 29.2917 88.2288 29.282C88.4849 29.2229 88.7216 29.0996 88.9168 28.9238C89.112 28.7479 89.2592 28.5253 89.3446 28.2768C89.5751 27.7827 89.6386 27.227 89.5256 26.6936Z" fill="black"/>
</g>
<path d="M87.2739 28.599C87.2437 28.599 87.1181 28.4834 87.0025 28.222C86.8606 27.8682 86.8188 27.4821 86.8818 27.1062C86.9504 26.7301 87.1247 26.3814 87.3844 26.101C87.5805 25.8899 87.7463 25.8145 87.7664 25.8396C87.4851 26.2373 87.2758 26.6813 87.1482 27.1514C87.1074 27.6376 87.1499 28.1271 87.2739 28.599Z" fill="white"/>
<g opacity="0.3">
<path d="M56.5993 35.0524C56.463 34.9208 56.296 34.8252 56.1135 34.7743C55.931 34.7235 55.7386 34.7188 55.5539 34.7609C55.4023 34.805 55.2656 34.8897 55.1584 35.0057C55.0513 35.1217 54.9778 35.2647 54.9457 35.4193C54.8632 35.7903 54.92 36.1787 55.1054 36.5106C55.2907 36.8424 55.5917 37.0944 55.951 37.2186C56.097 37.274 56.2544 37.2928 56.4095 37.2736C56.5645 37.2543 56.7125 37.1975 56.8406 37.1081C56.9693 36.9724 57.0609 36.8059 57.1066 36.6245C57.1524 36.4432 57.1508 36.2532 57.1019 36.0727C57.0539 35.6857 56.8768 35.3263 56.5993 35.0524Z" fill="black"/>
</g>
<path d="M56.0112 37.0575C56.0112 37.0877 55.8655 37.0575 55.6846 36.957C55.4607 36.8061 55.286 36.5929 55.1819 36.3438C55.0704 36.0913 55.0388 35.8107 55.0915 35.5396C55.1317 35.3336 55.2071 35.223 55.2372 35.2331C55.2674 35.2431 55.197 35.7357 55.4232 36.2383C55.6494 36.7409 56.0464 36.9922 56.0112 37.0575Z" fill="white"/>
<g opacity="0.3">
<path d="M96.1701 31.5293C96.209 31.3432 96.2004 31.1503 96.145 30.9685C96.0897 30.7866 95.9894 30.6217 95.8534 30.4888C95.7344 30.3843 95.589 30.3145 95.433 30.287C95.277 30.2596 95.1164 30.2755 94.9688 30.333C94.612 30.4632 94.3155 30.72 94.1357 31.0545C93.9559 31.3891 93.9054 31.7781 93.9938 32.1475C94.0245 32.3014 94.093 32.4454 94.193 32.5664C94.2929 32.6874 94.4214 32.7818 94.5668 32.8411C94.7491 32.8741 94.9368 32.8606 95.1126 32.8017C95.2883 32.7428 95.4463 32.6405 95.572 32.5043C95.8738 32.2545 96.0842 31.9115 96.1701 31.5293Z" fill="black"/>
</g>
<path d="M94.1647 32.1072C94.1295 32.1072 94.0742 31.9916 94.0742 31.7805C94.0759 31.5048 94.1595 31.2357 94.3143 31.0076C94.4691 30.7794 94.6882 30.6023 94.9437 30.4988C95.1398 30.4234 95.2705 30.4284 95.2805 30.4636C95.2906 30.4988 94.8382 30.6948 94.5316 31.1572C94.225 31.6196 94.2401 32.1021 94.1647 32.1072Z" fill="white"/>
<path d="M47.2205 32.5088C46.1329 32.3336 45.0607 32.0731 44.0138 31.7297C42.9443 31.4681 41.8972 31.1219 40.8826 30.6943C41.9689 30.8702 43.0395 31.1324 44.0842 31.4784C45.1555 31.7376 46.2043 32.0822 47.2205 32.5088Z" fill="#263238"/>
<path d="M53.2519 22.2456C52.2105 20.9973 51.2374 19.6936 50.3368 18.3403C49.3613 17.0392 48.4585 15.685 47.6327 14.2842C48.6722 15.534 49.6453 16.8375 50.5479 18.1895C51.5233 19.4906 52.4261 20.8447 53.2519 22.2456Z" fill="#263238"/>
<path d="M65.3699 16.5965C65.2996 16.5965 64.807 13.9276 64.2692 10.6153C63.7314 7.30312 63.3545 4.58398 63.4248 4.58398C63.4952 4.58398 63.9878 7.24784 64.5256 10.5601C65.0634 13.8723 65.4403 16.5814 65.3699 16.5965Z" fill="#263238"/>
<path d="M84.9468 0C84.9675 0.198832 84.9675 0.399278 84.9468 0.59811C84.9468 0.985122 84.8915 1.538 84.8312 2.22155C84.7156 3.59369 84.5095 5.48351 84.2029 7.55931C83.8963 9.63511 83.5546 11.5048 83.2731 12.8468C83.1374 13.5203 83.0117 14.0631 82.9213 14.4401C82.8896 14.6377 82.8321 14.8304 82.7504 15.0131C82.7539 14.8135 82.7775 14.6148 82.8207 14.42C82.8961 13.9827 82.9866 13.4499 83.0922 12.8167C83.3284 11.4596 83.64 9.58987 83.9466 7.5191C84.2532 5.44833 84.4844 3.56856 84.6502 2.20145C84.7273 1.5648 84.7927 1.02701 84.8463 0.588057C84.8563 0.388742 84.89 0.191333 84.9468 0Z" fill="#263238"/>
<path d="M99.7889 11.9873C98.9538 13.2423 98.0459 14.4473 97.0698 15.5961C96.1605 16.7995 95.1821 17.949 94.1395 19.039C94.9775 17.7847 95.8871 16.5798 96.8637 15.4302C97.772 14.2275 98.7487 13.078 99.7889 11.9873Z" fill="#263238"/>
<path d="M108.64 27.8049C107.395 28.0621 106.134 28.2301 104.865 28.3075C103.604 28.4742 102.333 28.5549 101.061 28.5487C102.308 28.2958 103.57 28.1279 104.84 28.0461C106.1 27.881 107.369 27.8004 108.64 27.8049Z" fill="#263238"/>
<path d="M144.381 138.028C144.381 138.028 139.938 138.365 140.224 140.144C140.511 141.923 142.662 142.918 145.296 142.521L147.643 139.616L144.381 138.028Z" fill="#EB996E"/>
<path d="M138.711 158.957L143.888 180.418L160.017 156.293L171.577 159.912C171.577 159.912 148.749 211.877 143.23 211.013C137.711 210.148 133.178 209.781 130.443 203.976C127.709 198.171 121.195 176.729 121.195 176.729L119.225 167.24L138.093 158.957" fill="#FFBE9D"/>
<path d="M136.495 129.076C136.495 129.076 156.956 132.172 157.786 132.765C158.615 133.358 172.894 147.995 173.015 152.156C173.049 154.803 172.564 157.431 171.587 159.891L160.284 157.273L155.051 150.849C155.051 150.849 150.769 150.965 149.698 150.251C148.628 149.538 147.437 147.738 147.688 146.803C147.688 146.803 144.476 146.683 145.311 142.521C145.311 142.521 141.621 140.259 144.119 138.239C146.617 136.218 151.257 135.5 151.257 135.5C151.257 135.5 138.651 133.6 137.224 132.172C136.814 131.783 136.527 131.283 136.398 130.733C136.268 130.183 136.302 129.607 136.495 129.076Z" fill="#FFBE9D"/>
<path d="M152.599 139.802C152.599 139.882 150.925 140.144 148.97 140.882C147.015 141.621 145.567 142.516 145.527 142.445C145.799 142.188 146.107 141.971 146.442 141.802C147.218 141.342 148.034 140.952 148.879 140.636C149.724 140.317 150.595 140.075 151.483 139.912C151.847 139.82 152.223 139.783 152.599 139.802Z" fill="#EB996E"/>
<path d="M154.393 144.984C154.393 145.059 152.91 145.275 151.121 145.748C149.332 146.22 147.919 146.753 147.889 146.683C148.162 146.492 148.462 146.343 148.779 146.24C150.263 145.645 151.817 145.239 153.403 145.034C153.728 144.967 154.062 144.95 154.393 144.984Z" fill="#EB996E"/>
<path d="M164.4 159.083C163.601 158.801 162.831 158.441 162.103 158.007C161.334 157.648 160.605 157.21 159.927 156.7C160.727 156.979 161.497 157.34 162.224 157.776C162.992 158.135 163.722 158.573 164.4 159.083Z" fill="#EB996E"/>
<path d="M143.401 190.646C143.37 188.925 143.43 187.204 143.582 185.489C143.639 183.769 143.787 182.053 144.024 180.348C144.094 180.348 144.024 182.66 143.843 185.504C143.662 188.349 143.471 190.651 143.401 190.646Z" fill="#EB996E"/>
<path d="M116.556 120.622C114.757 118.029 112.41 115.792 111.078 112.932C110.282 111.028 109.727 109.032 109.424 106.991L100.332 59.243L52.4678 54.061C45.2968 66.9901 41.4472 81.4971 41.2646 96.2806C41.1842 103.895 41.737 112.495 36.4948 118.019C34.2833 120.351 31.0816 122.04 30.2272 125.166C29.4984 127.81 30.77 130.624 30.4333 133.348C30.0412 136.545 27.5633 139.008 25.7941 141.697C23.2424 145.594 22.0513 150.226 22.4065 154.87C22.5875 157.082 23.2911 159.509 25.2161 160.615C26.4073 161.299 27.8448 161.339 29.237 161.364C59.2732 161.932 89.6311 162.47 118.979 156.066C120.185 150.09 121.396 144.069 121.386 137.972C121.376 131.876 120.024 125.628 116.556 120.622Z" fill="#263238"/>
<path d="M44.2601 163.827C44.2601 163.827 44.2099 163.762 44.1244 163.631C44.039 163.5 43.9133 163.289 43.7525 163.038C43.2976 162.268 42.8946 161.469 42.5462 160.645C42.0091 159.333 41.6066 157.969 41.345 156.574C41.0058 154.723 40.9129 152.836 41.0685 150.96C41.2722 148.684 41.862 146.459 42.8126 144.381C43.8178 142.144 45.3005 139.948 46.2354 137.374C46.4661 136.72 46.6443 136.047 46.7682 135.364C46.8844 134.67 46.9349 133.967 46.919 133.263C46.845 131.804 46.5936 130.359 46.1701 128.961C45.773 127.528 45.2754 126.086 44.8583 124.588C44.4137 123.075 44.1489 121.514 44.0691 119.939C43.9385 116.732 44.5718 113.646 45.2855 110.741C45.9992 107.836 46.8436 105.066 47.4115 102.377C48.4433 97.6188 49.0521 92.7782 49.231 87.9123C49.3438 84.6317 49.2649 81.3474 48.9948 78.0761C48.8942 76.9201 48.8088 76.0204 48.7334 75.4123C48.7032 75.1157 48.6781 74.8845 48.663 74.7187C48.648 74.5528 48.663 74.4824 48.663 74.4824C48.6809 74.5586 48.6944 74.6358 48.7032 74.7136C48.7284 74.8795 48.7585 75.1107 48.8038 75.4022C48.8942 76.0104 48.9948 76.91 49.1104 78.0661C49.4223 81.3416 49.5298 84.6334 49.432 87.9223C49.2792 92.8024 48.6871 97.6589 47.6628 102.433C47.0999 105.127 46.2806 107.906 45.5519 110.806C44.8231 113.706 44.2149 116.762 44.3456 119.924C44.4763 123.085 45.6323 126.01 46.4365 128.895C46.8668 130.318 47.1217 131.788 47.1954 133.273C47.2101 133.994 47.1563 134.714 47.0346 135.424C46.9067 136.108 46.7235 136.781 46.4867 137.435C45.5317 140.048 44.049 142.235 43.0338 144.471C42.0857 146.525 41.491 148.724 41.2746 150.975C41.1085 152.834 41.1896 154.707 41.5159 156.544C41.7645 157.932 42.1483 159.292 42.6618 160.605C43.0013 161.43 43.389 162.234 43.8229 163.013C43.9736 163.267 44.0892 163.469 44.1697 163.616C44.225 163.752 44.2601 163.827 44.2601 163.827Z" fill="#455A64"/>
<path d="M82.484 37.2688C73.3565 36.9773 64.5055 39.043 57.9966 45.4463C52.0256 51.3269 49.3667 56.7802 48.8792 65.4001C48.7133 68.3554 49.9799 74.8643 51.1762 77.5683C52.3724 80.2724 55.6997 87.118 58.4691 88.1232C61.2385 89.1285 62.5905 84.3938 64.5004 82.1522C65.6816 80.7851 66.2144 78.9857 66.7371 77.2567C68.9436 69.9387 71.6124 62.6256 76.1812 56.4937C80.7499 50.3619 87.4749 45.4966 95.0795 44.6924L99.9347 44.5818C93.7576 38.5907 88.5053 37.4648 82.484 37.2688Z" fill="#455A64"/>
<path d="M90.0432 46.9041L65.2342 56.1824C64.051 56.4415 63.0081 57.1353 62.3119 58.1266C61.6157 59.1178 61.3169 60.3342 61.4747 61.5352L70.1146 116.943C70.7019 120.728 72.5237 124.213 75.2965 126.855L78.2117 129.639C84.8613 135.987 96.0394 133.57 99.0903 124.895C99.2771 124.399 99.402 123.883 99.4622 123.357C99.5024 122.927 99.5192 122.496 99.5125 122.065C99.5379 119.223 99.265 116.386 98.6982 113.601C98.1956 108.63 97.9795 106.59 97.9845 106.635C97.9895 106.68 108.273 103.735 108.931 89.8223C109.258 82.9013 107.68 71.7885 106.097 62.7415C104.669 54.5941 98.1202 45.1349 90.0432 46.9041Z" fill="#FFBE9D"/>
<path d="M102.086 72.7031C102.14 73.1615 102.013 73.6229 101.731 73.9884C101.449 74.3539 101.035 74.5944 100.578 74.6583C100.357 74.7009 100.129 74.6987 99.9084 74.652C99.6878 74.6052 99.4789 74.5147 99.2938 74.3859C99.1088 74.2571 98.9514 74.0925 98.831 73.9019C98.7106 73.7113 98.6296 73.4985 98.5927 73.2761C98.5396 72.8179 98.6675 72.3572 98.9492 71.992C99.2308 71.6268 99.644 71.386 100.101 71.3209C100.322 71.2776 100.55 71.2792 100.771 71.3257C100.992 71.3721 101.201 71.4625 101.386 71.5915C101.571 71.7204 101.729 71.8852 101.849 72.0762C101.969 72.2672 102.05 72.4804 102.086 72.7031Z" fill="#263238"/>
<path d="M104.795 68.8076C104.599 69.0589 103.162 68.2245 101.277 68.4406C99.3919 68.6568 98.1103 69.7525 97.8841 69.5414C97.7685 69.4509 97.9444 69.0388 98.4973 68.506C99.2524 67.8501 100.191 67.443 101.186 67.3399C102.167 67.2292 103.158 67.4334 104.016 67.923C104.644 68.2999 104.891 68.692 104.795 68.8076Z" fill="#263238"/>
<path d="M84.2783 74.397C84.3327 74.8554 84.2053 75.3168 83.9234 75.6823C83.6415 76.0479 83.2276 76.2883 82.7705 76.3522C82.5491 76.3948 82.3214 76.3927 82.1008 76.3459C81.8803 76.2991 81.6713 76.2087 81.4863 76.0798C81.3012 75.951 81.1439 75.7864 81.0234 75.5958C80.903 75.4052 80.822 75.1924 80.7851 74.97C80.7307 74.5116 80.8581 74.0502 81.14 73.6847C81.4219 73.3192 81.8358 73.0787 82.293 73.0148C82.5144 72.9722 82.7421 72.9743 82.9626 73.0211C83.1832 73.0679 83.3921 73.1584 83.5772 73.2872C83.7622 73.416 83.9196 73.5806 84.04 73.7712C84.1604 73.9618 84.2414 74.1746 84.2783 74.397Z" fill="#263238"/>
<path d="M85.8113 70.5667C85.6203 70.823 84.1778 69.9837 82.293 70.1998C80.4082 70.4159 79.1316 71.5116 78.9004 71.3005C78.7898 71.21 78.9607 70.7979 79.5186 70.2651C80.2711 69.6083 81.2088 69.2009 82.2025 69.0991C83.1853 68.9886 84.1778 69.1928 85.0373 69.6821C85.6605 70.0641 85.8967 70.4561 85.8113 70.5667Z" fill="#263238"/>
<path d="M94.2099 84.4491C94.2099 84.3435 95.3408 84.0118 97.2256 83.5594C97.698 83.4539 98.1453 83.3081 98.1906 82.9714C98.1701 82.4667 97.9946 81.9806 97.688 81.5791C97.11 80.4633 96.4968 79.2923 95.8585 78.0608C93.3001 73.0598 91.3902 68.9183 91.5963 68.8178C91.8024 68.7173 94.034 72.6929 96.5923 77.699L98.3665 81.2173C98.6077 81.745 98.9897 82.3331 98.8239 83.082C98.7728 83.2591 98.682 83.4223 98.5583 83.5591C98.4346 83.6958 98.2813 83.8025 98.1102 83.8711C97.8523 83.9749 97.5819 84.0441 97.306 84.0771C95.4162 84.4189 94.23 84.5697 94.2099 84.4491Z" fill="#263238"/>
<path d="M97.9845 106.635C91.5571 107.447 85.0304 106.458 79.1315 103.78C79.1315 103.78 84.7859 112.736 98.3313 109.942L97.9845 106.635Z" fill="#EB996E"/>
<path d="M93.9385 89.093C93.5305 88.6797 93.0234 88.3778 92.4656 88.2159C91.9078 88.054 91.3179 88.0376 90.752 88.1682C90.3404 88.2513 89.95 88.4171 89.6044 88.6556C89.2588 88.894 88.9653 89.2002 88.7415 89.5554C88.5281 89.8995 88.4235 90.2999 88.4414 90.7044C88.4594 91.1088 88.599 91.4984 88.842 91.8222C89.4301 92.4806 90.5107 92.5259 91.3853 92.169C92.2415 91.7561 93.0069 91.1769 93.637 90.4652C93.8412 90.2919 94.0116 90.0823 94.1396 89.847C94.1965 89.7347 94.2192 89.6081 94.2049 89.4831C94.1906 89.358 94.1399 89.2399 94.0592 89.1433" fill="#EB996E"/>
<path d="M88.8018 86.3691C89.1084 86.3188 89.3346 88.3795 91.2495 89.626C93.1645 90.8725 95.3207 90.4201 95.3659 90.7066C95.4112 90.8273 94.9236 91.1539 94.0089 91.2846C92.8097 91.4334 91.5963 91.1558 90.581 90.5006C89.6098 89.8689 88.9215 88.8851 88.6611 87.7563C88.4851 86.9069 88.6611 86.3741 88.8018 86.3691Z" fill="#263238"/>
<path d="M85.6805 61.62C85.4594 62.1227 83.5846 61.7407 81.343 61.8462C79.1013 61.9518 77.2617 62.4293 77.0004 61.9468C76.8848 61.7155 77.2316 61.2531 78.0056 60.8108C79.0164 60.2685 80.1375 59.964 81.2838 59.9205C82.43 59.8769 83.571 60.0955 84.62 60.5595C85.394 60.9465 85.781 61.3788 85.6805 61.62Z" fill="#263238"/>
<path d="M95.9942 64.3244C96.3461 63.847 98.0047 64.0782 99.9347 63.8218C101.865 63.5655 103.453 63.0629 103.885 63.46C104.081 63.656 103.885 64.1184 103.222 64.616C102.302 65.2548 101.231 65.6429 100.116 65.7418C99.0117 65.8806 97.8906 65.7281 96.8638 65.2995C96.1249 64.9678 95.8384 64.5607 95.9942 64.3244Z" fill="#263238"/>
<path d="M67.8881 84.0119C67.7724 83.0067 66.3299 80.7248 65.3046 80.6796C62.5704 80.559 57.7654 81.3129 58.4691 88.1384C59.4391 97.4669 68.6018 94.5668 68.5917 94.2954C68.5817 94.024 68.3052 87.5302 67.8881 84.0119Z" fill="#FFBE9D"/>
<path d="M65.375 91.0586C65.3298 91.0586 65.2242 91.1892 64.9629 91.345C64.5936 91.5494 64.1597 91.6035 63.7516 91.4958C62.7463 91.2345 61.7411 89.7568 61.5149 88.0831C61.4057 87.2848 61.4778 86.4722 61.726 85.7057C61.7848 85.4057 61.9151 85.1243 62.1059 84.8855C62.2966 84.6466 62.5422 84.4573 62.8217 84.3336C63.003 84.266 63.2021 84.2631 63.3853 84.3253C63.5684 84.3876 63.7245 84.5113 63.827 84.6754C63.9777 84.9267 63.9375 85.1177 63.9878 85.1277C64.0381 85.1378 64.1738 84.9518 64.0582 84.5748C63.981 84.3496 63.8306 84.1567 63.6309 84.027C63.3528 83.8613 63.021 83.8108 62.7061 83.8863C61.9924 84.0069 61.4144 84.7357 61.1581 85.5047C60.8465 86.3559 60.7465 87.2701 60.8666 88.1685C61.1229 90.0383 62.2689 91.6868 63.6561 91.9482C63.9144 91.9945 64.1799 91.9825 64.4329 91.9129C64.686 91.8433 64.9203 91.718 65.1187 91.5461C65.38 91.2847 65.4102 91.0736 65.375 91.0586Z" fill="#EB996E"/>
<path d="M99.9698 44.2654C96.733 41.3402 92.506 39.6866 88.2137 38.8925C84.5009 38.176 80.6831 38.2017 76.9803 38.9679C68.657 39.4705 58.655 51.8398 57.1723 60.0425C56.4636 63.9528 57.0165 67.9787 57.7302 71.8891C58.0921 73.8995 58.5092 75.91 59.4893 77.6641C60.4694 79.4182 62.1029 80.9462 64.0882 81.308C66.0736 81.6699 68.3655 80.5843 68.9586 78.6492C69.4059 77.2017 68.8781 75.5883 69.2953 74.1257C70.2503 70.7883 75.2563 70.2807 76.6988 67.1193C77.7392 64.8424 76.5279 61.9725 77.6739 59.7459C78.8198 57.5193 81.5792 57.0016 83.8158 55.9914C85.6575 55.1262 87.2675 53.8363 88.5135 52.2277C89.7595 50.6191 90.6059 48.7377 90.9831 46.7383H91.1691C100.261 46.4568 104.358 56.0417 105.72 59.957C106.082 57.0725 105.75 54.1431 104.749 51.4133C103.749 48.6836 102.11 46.2327 99.9698 44.2654Z" fill="#263238"/>
<path d="M62.3091 49.7488C62.4058 49.7354 62.5039 49.7354 62.6006 49.7488L63.4299 49.8493C63.7918 49.8996 64.2341 49.9498 64.7468 49.9951C65.2594 50.0403 65.8425 50.1106 66.4908 50.1458C67.7825 50.2514 69.3306 50.2966 71.0445 50.2916C72.7584 50.2866 74.6432 50.176 76.6135 49.98C78.5837 49.7839 80.4434 49.4774 82.1422 49.1356C83.841 48.7938 85.3238 48.4168 86.5652 48.0449C87.1935 47.879 87.7514 47.6931 88.2389 47.5423C88.7265 47.3915 89.1537 47.2508 89.4955 47.1251L90.2896 46.8587C90.3796 46.82 90.4742 46.7929 90.571 46.7783C90.4899 46.8317 90.402 46.8739 90.3097 46.904L89.5306 47.2206C89.1939 47.3614 88.7767 47.5172 88.2892 47.683C87.8017 47.8489 87.2437 48.0499 86.6205 48.2309C85.379 48.6229 83.8712 49.0049 82.1874 49.3768C80.5037 49.7488 78.634 50.0302 76.6587 50.2464C74.6834 50.4625 72.7886 50.5278 71.0646 50.5379C69.3406 50.5479 67.7926 50.4675 66.4958 50.3368C65.8475 50.2916 65.2644 50.2112 64.7518 50.1458C64.2391 50.0805 63.7968 50.0202 63.44 49.9548L62.6106 49.8041C62.5086 49.7949 62.4077 49.7764 62.3091 49.7488Z" fill="#455A64"/>
<path d="M58.7003 55.2326C58.8178 55.243 58.9339 55.2648 59.0471 55.2979L60.0523 55.5291L60.7661 55.7C61.0274 55.7603 61.3139 55.8005 61.6205 55.8558C62.2387 55.9513 62.9323 56.1121 63.7164 56.1725L64.9378 56.3031C65.365 56.3534 65.8123 56.3433 66.2747 56.3685C67.1945 56.4338 68.1796 56.3685 69.215 56.3685C71.4536 56.2247 73.6735 55.8679 75.8445 55.3029C78.0152 54.7008 80.1252 53.8982 82.1473 52.9055L83.4943 52.2018C83.9315 51.9857 84.3236 51.6992 84.7257 51.478C85.1278 51.2569 85.5097 51.0257 85.8565 50.7744L86.8618 50.0707C87.5202 49.6435 88.053 49.171 88.5505 48.7891C88.7918 48.5981 89.028 48.4222 89.2291 48.2462L89.7719 47.7436L90.5359 47.0751C90.6217 46.9939 90.7142 46.9199 90.8123 46.854C90.7425 46.9488 90.6615 47.0349 90.571 47.1103L89.8523 47.8793L89.3195 48.3819C89.1235 48.5629 88.8923 48.7438 88.6511 48.9449C88.1485 49.3369 87.6458 49.8194 86.9774 50.2617L85.9721 50.9805C85.6253 51.2368 85.2283 51.4529 84.8362 51.7042C84.4442 51.9555 84.0471 52.2068 83.6048 52.4431L82.2578 53.1618C80.2251 54.1674 78.1012 54.9769 75.9148 55.5794C73.7191 56.1428 71.4734 56.4896 69.21 56.6148C68.2221 56.6653 67.2324 56.6653 66.2445 56.6148C65.7821 56.5846 65.3298 56.6148 64.9026 56.5343L63.6712 56.3886C62.8821 56.3182 62.1885 56.1373 61.5702 56.0267C61.2637 55.9664 60.9772 55.9212 60.7158 55.8508L60.0121 55.6548L59.032 55.3783C58.9168 55.3412 58.8056 55.2924 58.7003 55.2326Z" fill="#455A64"/>
<path d="M66.9481 96.6327C66.9481 96.6327 66.9481 96.6779 66.9481 96.7634C66.9505 96.8899 66.9387 97.0164 66.913 97.1403C66.8041 97.5956 66.5501 98.0032 66.1892 98.3014C65.657 98.7544 64.9877 99.0147 64.2893 99.0402C63.8599 99.0505 63.4338 98.9626 63.0436 98.7832C62.6534 98.6037 62.3093 98.3375 62.0376 98.0048C61.7561 97.6813 61.5468 97.3015 61.4237 96.8906C61.3006 96.4798 61.2666 96.0475 61.3239 95.6224C61.4377 94.9361 61.7648 94.303 62.2588 93.813C62.5828 93.4819 62.9734 93.2232 63.4047 93.0541C63.5632 92.9834 63.7339 92.9442 63.9073 92.9385C63.3408 93.166 62.8274 93.5083 62.3995 93.9437C61.9581 94.4208 61.6709 95.0198 61.5752 95.6626C61.5314 96.0542 61.571 96.4505 61.6914 96.8256C61.8118 97.2008 62.0103 97.5461 62.2738 97.839C62.5205 98.143 62.8325 98.3877 63.1866 98.5547C63.5407 98.7218 63.9279 98.807 64.3195 98.804C64.9691 98.7895 65.5967 98.5657 66.1088 98.1657C66.4565 97.8991 66.7171 97.5352 66.8577 97.1202C66.928 96.8187 66.918 96.6327 66.9481 96.6327Z" fill="#E0E0E0"/>
<path d="M89.606 84.5396C89.606 84.62 88.651 84.8763 87.5955 85.5046C86.54 86.1328 85.8464 86.8465 85.7911 86.7913C86.2421 86.179 86.812 85.6641 87.4666 85.2772C88.1212 84.8903 88.8471 84.6394 89.6009 84.5396H89.606Z" fill="#EB996E"/>
<path d="M63.5203 118.38L69.8834 116.104L98.9646 115.003L108.977 117.923C108.977 117.923 96.2505 134.193 85.208 133.072C74.1656 131.951 63.5203 118.38 63.5203 118.38Z" fill="#FFBE9D"/>
<path d="M125.85 124.809L123.909 133.962L119.235 171.366C119.235 171.366 135.666 169.416 140.928 160.067V158.509C140.928 158.509 130.197 126.066 125.85 124.809Z" fill="#BCB2EF"/>
<path d="M125.849 124.809L108.127 116.823C108.127 116.823 104.428 124.221 89.234 126.372C74.04 128.524 62.8719 117.828 62.8719 117.828C62.8719 117.828 57.4136 120.552 49.623 123.472L50.6635 170.401L53.7797 180.142C53.7797 180.142 51.0555 193.778 50.0804 197.869C49.1054 201.961 51.8345 203.689 51.8345 203.689L50.4674 217.26H126.247L121.582 190.456L125.849 124.809Z" fill="#BCB2EF"/>
<path d="M49.6231 123.462C49.6231 123.462 39.9528 127.734 36.4697 135.66C33.5043 142.41 27.679 159.479 27.679 159.479L52.2216 171.366V137.847L49.6231 123.462Z" fill="#BCB2EF"/>
<path d="M45.4614 147.668C45.5318 147.668 46.9693 153.348 48.6379 160.389C50.3066 167.431 51.6235 173.15 51.5531 173.171C51.4827 173.191 50.0453 167.491 48.3816 160.449C46.7179 153.408 45.391 147.683 45.4614 147.668Z" fill="#263238"/>
<path d="M125.101 140.239C125.107 140.281 125.107 140.323 125.101 140.365C125.101 140.465 125.101 140.591 125.101 140.747C125.08 141.099 125.055 141.581 125.025 142.194C124.945 143.471 124.829 145.285 124.693 147.517C124.387 152.041 123.97 158.233 123.507 165.083C123.045 171.934 122.567 178.151 122.241 182.645C122.07 184.876 121.929 186.666 121.829 187.962C121.773 188.576 121.733 189.058 121.703 189.41C121.703 189.561 121.673 189.686 121.663 189.782C121.668 189.825 121.668 189.869 121.663 189.913C121.657 189.869 121.657 189.825 121.663 189.782C121.663 189.681 121.663 189.556 121.663 189.405C121.663 189.053 121.708 188.571 121.743 187.957C121.819 186.676 121.934 184.861 122.07 182.63C122.376 178.106 122.799 171.914 123.261 165.038C123.723 158.162 124.201 151.995 124.523 147.482C124.699 145.25 124.839 143.461 124.935 142.159C124.99 141.551 125.03 141.069 125.06 140.717C125.06 140.566 125.091 140.44 125.101 140.34C125.096 140.306 125.096 140.273 125.101 140.239Z" fill="#263238"/>
<path d="M112.033 118.486C112.033 118.486 112.008 118.532 111.942 118.607L111.661 118.929C111.399 119.205 111.058 119.652 110.53 120.145C109.091 121.584 107.499 122.86 105.78 123.95C105.247 124.322 104.644 124.628 104.041 124.99C103.438 125.352 102.769 125.654 102.086 125.995C100.619 126.67 99.1079 127.243 97.5624 127.709C94.0099 128.765 90.3157 129.265 86.6104 129.192C82.9081 129.084 79.2368 128.482 75.6937 127.403C72.8061 126.525 70.0076 125.377 67.3352 123.975C65.5314 123.036 63.7843 121.992 62.103 120.849C61.5049 120.452 61.0626 120.11 60.751 119.889L60.4042 119.632C60.3628 119.606 60.3256 119.574 60.2936 119.537L60.4243 119.612L60.7811 119.848C61.1028 120.054 61.5501 120.381 62.1583 120.763C63.8567 121.872 65.6133 122.889 67.4206 123.809C70.0932 125.182 72.886 126.308 75.764 127.171C79.2882 128.232 82.9368 128.823 86.6155 128.931C91.9082 129.046 97.1592 127.971 101.98 125.784C102.659 125.458 103.317 125.141 103.931 124.809C104.544 124.477 105.137 124.156 105.665 123.804C107.383 122.732 108.984 121.483 110.444 120.08C110.982 119.602 111.334 119.165 111.605 118.903L111.907 118.597C111.944 118.555 111.987 118.518 112.033 118.486Z" fill="#263238"/>
<path d="M49.7085 166.953C49.4155 166.887 49.1281 166.798 48.849 166.687C48.3012 166.496 47.5171 166.21 46.5521 165.843C44.617 165.109 41.9632 164.038 39.0732 162.767C36.1832 161.495 33.6047 160.254 31.7602 159.314C30.8353 158.846 30.0965 158.459 29.5889 158.183C29.3176 158.053 29.0571 157.902 28.8098 157.73C29.0936 157.83 29.3692 157.95 29.6341 158.092L31.8406 159.148C33.7053 160.037 36.2937 161.254 39.1787 162.525C42.0637 163.797 44.7075 164.893 46.6174 165.672L48.8842 166.592C49.1675 166.692 49.443 166.813 49.7085 166.953Z" fill="#263238"/>
<path d="M141.003 158.509C140.828 158.709 140.636 158.894 140.43 159.062C140.048 159.404 139.48 159.881 138.767 160.454C136.888 161.929 134.904 163.264 132.831 164.45C130.755 165.63 128.594 166.654 126.367 167.516C125.508 167.843 124.809 168.089 124.321 168.24C124.071 168.33 123.814 168.4 123.552 168.451C123.788 168.329 124.034 168.227 124.286 168.144C124.764 167.963 125.452 167.692 126.297 167.345C130.701 165.541 134.853 163.176 138.651 160.309C139.38 159.761 139.963 159.303 140.365 158.987C140.562 158.807 140.776 158.648 141.003 158.509Z" fill="#263238"/>
<path d="M105.765 175.126C105.765 175.151 105.343 174.869 104.519 174.538C103.345 174.095 102.099 173.875 100.844 173.889C98.9847 173.933 97.1472 174.304 95.4162 174.985C93.446 175.709 91.3551 176.719 89.1335 177.704L77.7493 182.786L74.2863 184.293L73.3364 184.69C73.2291 184.745 73.1162 184.787 72.9996 184.816C73.1 184.75 73.2059 184.693 73.3163 184.645L74.2411 184.203L77.6739 182.615L89.023 177.463C91.2495 176.458 93.3404 175.452 95.3358 174.754C97.1003 174.073 98.9732 173.715 100.865 173.698C102.137 173.7 103.397 173.951 104.574 174.437C104.887 174.576 105.191 174.735 105.484 174.915C105.583 174.978 105.677 175.048 105.765 175.126Z" fill="#263238"/>
<g opacity="0.3">
<path d="M73.6379 184.534C78.2268 187.424 84.3336 187.389 89.219 185.012C94.1044 182.634 97.8086 178.322 100.387 173.552C91.0837 176.432 82.4136 180.73 73.6379 184.534Z" fill="black"/>
</g>
<g opacity="0.3">
<path d="M45.6876 148.904C44.7276 155.8 46.7933 163.907 50.8042 169.597C49.5104 162.598 47.778 155.686 45.6172 148.904" fill="black"/>
</g>
<path d="M48.2006 159.324C48.1655 159.389 44.2602 157.469 39.4702 155.036C34.6803 152.604 30.8253 150.578 30.8605 150.513C30.8957 150.448 34.801 152.367 39.5909 154.8C44.3808 157.233 48.2409 159.258 48.2006 159.324Z" fill="white"/>
<path d="M45.4614 146.633C45.4262 146.693 42.9484 145.331 39.9327 143.587C36.917 141.843 34.5195 140.38 34.5547 140.32C34.5899 140.259 37.0678 141.617 40.0835 143.361C43.0991 145.105 45.5016 146.567 45.4614 146.633Z" fill="white"/>
<path d="M132.172 134.736C132.172 134.736 132.092 134.736 131.931 134.781L131.222 134.887L128.493 135.264C127.307 135.429 125.855 135.62 124.166 135.806C122.477 135.992 120.552 136.239 118.421 136.43L115.078 136.756C113.912 136.867 112.701 136.952 111.445 137.058C108.932 137.274 106.253 137.43 103.428 137.606C97.7735 137.912 91.5511 138.108 85.0222 138.154C78.4932 138.199 72.2608 137.988 66.6064 137.716C63.7767 137.555 61.0777 137.415 58.5646 137.214C57.308 137.118 56.0968 137.038 54.9307 136.932L51.5833 136.631C49.4522 136.45 47.5272 136.219 45.8384 136.038C44.1496 135.857 42.692 135.676 41.5059 135.535L38.7717 135.173L38.063 135.073L37.8217 135.027H38.068L38.7817 135.103L41.5159 135.414C42.7071 135.555 44.1597 135.721 45.8535 135.887C47.5473 136.053 49.4673 136.269 51.6034 136.44L54.9458 136.726C56.1118 136.827 57.3231 136.897 58.5797 136.993C61.0927 137.184 63.7717 137.314 66.5964 137.47C72.2508 137.726 78.4681 137.897 84.997 137.887C91.526 137.877 97.7433 137.651 103.393 137.385C106.217 137.214 108.921 137.068 111.409 136.882C112.661 136.781 113.877 136.701 115.038 136.596L118.381 136.289C120.517 136.108 122.437 135.877 124.126 135.701C125.814 135.525 127.272 135.349 128.458 135.198L131.197 134.867L131.911 134.791L132.172 134.736Z" fill="white"/>
<path d="M123.442 154.705C123.442 154.775 106.509 154.835 85.6203 154.835C64.7316 154.835 47.7986 154.775 47.7986 154.705C47.7986 154.634 64.7316 154.569 85.6203 154.569C106.509 154.569 123.442 154.629 123.442 154.705Z" fill="white"/>
<path d="M95.0594 174.181C95.0594 174.251 85.5951 174.312 73.9194 174.312C62.2437 174.312 52.8096 174.251 52.8096 174.181C52.8096 174.111 62.2688 174.05 73.9194 174.05C85.57 174.05 95.0594 174.106 95.0594 174.181Z" fill="white"/>
<path d="M122.623 174.331C122.623 174.402 118.717 174.462 113.897 174.462C109.077 174.462 105.172 174.402 105.172 174.331C105.172 174.261 109.077 174.201 113.897 174.201C118.717 174.201 122.623 174.256 122.623 174.331Z" fill="white"/>
<path d="M121.477 190.621C121.477 190.692 105.931 190.752 86.7562 190.752C67.5815 190.752 52.0256 190.692 52.0256 190.621C52.0256 190.551 67.5714 190.491 86.7562 190.491C105.941 190.491 121.477 190.566 121.477 190.621Z" fill="white"/>
<path d="M124.497 209.962C124.497 210.032 108.343 210.092 88.4148 210.092C68.4862 210.092 52.3271 210.032 52.3271 209.962C52.3271 209.891 68.4812 209.831 88.4148 209.831C108.348 209.831 124.497 209.891 124.497 209.962Z" fill="white"/>
<path d="M135.072 144.029C134.961 144.164 134.833 144.284 134.69 144.386C134.439 144.607 134.062 144.914 133.595 145.286C132.66 146.03 131.338 147.03 129.84 148.08C128.342 149.131 126.955 150.031 125.935 150.654C125.432 150.97 125.005 151.217 124.714 151.383C124.568 151.478 124.411 151.556 124.246 151.614C124.369 151.489 124.508 151.381 124.658 151.292L125.834 150.498C126.84 149.834 128.197 148.91 129.689 147.864C131.182 146.819 132.519 145.854 133.484 145.14L134.63 144.306C134.764 144.193 134.913 144.1 135.072 144.029Z" fill="white"/>
<path d="M139.973 153.986C139.79 154.163 139.59 154.321 139.375 154.458C138.983 154.75 138.405 155.157 137.686 155.655C136.249 156.66 134.228 157.972 131.956 159.364C129.684 160.756 127.578 161.942 126.04 162.772C125.271 163.184 124.643 163.51 124.206 163.732C123.984 163.856 123.752 163.962 123.512 164.048C123.712 163.891 123.928 163.754 124.156 163.641L125.95 162.611C127.458 161.741 129.544 160.53 131.821 159.138C134.097 157.745 136.118 156.449 137.586 155.499L139.32 154.373C139.526 154.226 139.745 154.096 139.973 153.986Z" fill="white"/>
<path d="M31.6848 161.419L25.5378 187.339L13.068 161.626H0C0 161.626 5.37797 189.149 15.2141 204.73C22.7885 216.732 29.6944 217.099 34.1727 215.405C38.651 213.711 43.0539 207.429 47.1452 192.416C49.5225 183.685 51.0153 177.096 51.538 173.171C51.6335 172.467 50.6484 170.391 50.6484 170.391L31.6848 161.419Z" fill="#FFBE9D"/>
<path d="M31.3832 144.109C31.3832 144.109 36.4696 143.727 36.4696 146.351C36.4696 148.975 29.3275 149.296 29.3275 149.296L28.3223 145.622L31.3832 144.109Z" fill="#EB996E"/>
<path d="M0.0150757 161.625C0.0150757 161.625 0.0150764 154.222 2.35223 151.106C4.24206 148.593 14.4703 140.692 18.3454 137.741C19.2995 137.013 20.4926 136.67 21.6878 136.781L42.6317 138.681C42.6317 138.681 43.0187 141.405 41.0736 141.797C39.1285 142.189 30.9912 142.144 30.9912 142.144C30.9912 142.144 31.8255 145.416 31.4284 146.808C31.0314 148.201 29.237 149.06 29.237 149.06C29.237 149.06 30.3327 150.99 27.0205 153.327C27.0205 153.327 27.2919 157.243 23.5877 157.348C22.4117 157.367 21.236 157.301 20.0694 157.152C20.0694 157.152 14.038 161.439 13.0328 161.635C12.0275 161.832 0.0150757 161.625 0.0150757 161.625Z" fill="#FFBE9D"/>
<path d="M7.48895 162.942C8.38113 162.612 9.3013 162.363 10.2383 162.198C11.1559 161.946 12.0947 161.778 13.0428 161.696C12.1516 162.03 11.2312 162.281 10.2935 162.445C9.37608 162.697 8.43719 162.864 7.48895 162.942Z" fill="#EB996E"/>
<path d="M21.924 150.191C22.8629 150.537 23.7546 150.999 24.5778 151.568C25.4489 152.067 26.2543 152.674 26.9753 153.372C26.93 153.433 25.8343 152.669 24.4371 151.794C23.0398 150.92 21.8938 150.261 21.924 150.191Z" fill="#EB996E"/>
<path d="M29.3275 148.905C29.2773 148.965 28.267 148.045 26.8597 147.15C25.4524 146.256 24.2059 145.708 24.2361 145.643C25.2276 145.908 26.165 146.345 27.0055 146.934C27.8898 147.449 28.676 148.116 29.3275 148.905Z" fill="#EB996E"/>
<path d="M25.6182 141.129C26.5291 141.163 27.4345 141.284 28.3223 141.491C29.2262 141.609 30.1166 141.815 30.9811 142.104C30.0701 142.076 29.1642 141.956 28.277 141.747C27.3733 141.625 26.4831 141.418 25.6182 141.129Z" fill="#EB996E"/>
<path d="M30.9811 195.682C29.9224 194.334 28.9327 192.934 28.0157 191.486C27.0272 190.088 26.1112 188.64 25.2714 187.148C26.3282 188.494 27.3162 189.894 28.2318 191.34C29.2215 192.74 30.1392 194.189 30.9811 195.682Z" fill="#EB996E"/>
</svg>
