<svg width="255" height="226" viewBox="0 0 255 226" fill="none" xmlns="http://www.w3.org/2000/svg">
<path d="M199.705 113.497C203.258 111.507 206.733 110.084 210.058 109.728L218.07 98.2241L239.754 113.075L233.082 139.274L236.912 177.904L244.924 225.437H171.977L171.177 202.919L158.077 129.027L175.252 121.576L199.705 113.497Z" fill="#9488D4"/>
<path d="M229.501 26.55C229.501 26.55 231.102 40.5111 231.63 44.342C232.186 48.5731 233.732 69.2285 233.732 69.2285L218.053 99.3971C218.275 102.415 219.298 105.319 221.017 107.81C222.737 110.3 225.09 112.287 227.833 113.564C234.505 116.733 239.214 112.98 239.214 112.98C239.214 112.98 252.558 80.1372 254.343 70.5852C256.128 61.0331 242.756 23.2974 242.756 23.2974L229.501 26.55Z" fill="#FFBF9D"/>
<path d="M157.977 80.5211C156.852 80.8808 155.633 80.8101 154.557 80.3227C153.481 79.8353 152.624 78.9659 152.152 77.8829C151.68 76.7998 151.626 75.5802 152.002 74.4601C152.378 73.34 153.156 72.3992 154.185 71.8197C153.326 71.229 152.675 70.383 152.324 69.4017C151.973 68.4203 151.94 67.3533 152.229 66.3519C152.518 65.3505 153.115 64.4655 153.935 63.8223C154.755 63.179 155.757 62.8102 156.798 62.7681C156.64 61.7538 156.748 60.716 157.111 59.7558C157.474 58.7956 158.079 57.9459 158.868 57.2895C159.658 56.6331 160.603 56.1925 161.614 56.0106C162.624 55.8287 163.664 55.9118 164.632 56.2517C165.581 55.1029 166.887 54.3047 168.342 53.9843C169.797 53.6638 171.318 53.8396 172.661 54.4837C173.606 54.1073 174.646 54.0441 175.629 54.3033C176.612 54.5625 177.486 55.1304 178.122 55.9235C178.759 56.7166 179.123 57.6929 179.163 58.7089C179.203 59.7248 178.916 60.7267 178.343 61.5671" fill="#263238"/>
<path d="M193.539 77.8134C192.282 66.5655 185.794 57.3304 174.585 58.9094L173.556 59.1151C168.571 60.1129 164.144 62.9511 161.156 67.0649C158.168 71.1787 156.839 76.2667 157.432 81.3162C158.578 91.0573 159.968 101.805 161.063 106.937C163.32 117.562 174.307 117.084 174.307 117.084L174.829 119.897C175.167 121.712 175.9 123.43 176.978 124.928C178.055 126.427 179.45 127.669 181.062 128.567C182.675 129.465 184.466 129.996 186.307 130.123C188.148 130.249 189.995 129.968 191.715 129.299C194.385 128.258 196.618 126.336 198.044 123.851C199.47 121.366 200.003 118.468 199.555 115.638L193.539 77.8134Z" fill="#FFBF9D"/>
<path d="M174.207 117.083C179.155 116.097 183.715 113.709 187.345 110.206C187.345 110.206 185.799 118.696 174.985 119.863L174.207 117.083Z" fill="#FF9A6C"/>
<path d="M162.136 90.4399C162.213 90.8363 162.441 91.1871 162.772 91.4185C163.103 91.6498 163.511 91.7435 163.91 91.6798C164.105 91.6565 164.293 91.5947 164.464 91.498C164.635 91.4013 164.785 91.2716 164.906 91.1164C165.026 90.9613 165.115 90.7837 165.166 90.5941C165.218 90.4045 165.231 90.2066 165.205 90.0118C165.129 89.6145 164.902 89.2623 164.571 89.0298C164.24 88.7973 163.831 88.7029 163.431 88.7664C163.236 88.7904 163.048 88.8529 162.877 88.9501C162.706 89.0474 162.555 89.1776 162.435 89.3332C162.315 89.4888 162.226 89.6667 162.175 89.8567C162.123 90.0466 162.11 90.2449 162.136 90.4399Z" fill="#263238"/>
<path d="M160.763 86.0644C160.991 86.2256 161.969 85.1414 163.609 84.8189C165.25 84.4965 166.606 85.0747 166.745 84.8189C166.812 84.7133 166.551 84.3964 165.95 84.1184C165.145 83.7692 164.252 83.6779 163.393 83.8571C162.539 84.0241 161.76 84.4583 161.169 85.0969C160.746 85.5973 160.652 85.9921 160.763 86.0644Z" fill="#263238"/>
<path d="M177.148 87.76C177.224 88.157 177.452 88.5087 177.783 88.7403C178.114 88.9719 178.523 89.065 178.922 88.9999C179.116 88.9766 179.305 88.9147 179.476 88.8179C179.646 88.7212 179.796 88.5913 179.916 88.4361C180.036 88.2809 180.124 88.1033 180.175 87.9137C180.226 87.7241 180.238 87.5263 180.212 87.3319C180.137 86.9353 179.91 86.5836 179.58 86.3519C179.25 86.1203 178.842 86.027 178.443 86.092C178.248 86.1153 178.06 86.1771 177.889 86.2738C177.718 86.3705 177.568 86.5002 177.447 86.6554C177.327 86.8105 177.238 86.9881 177.187 87.1777C177.136 87.3673 177.122 87.5652 177.148 87.76Z" fill="#263238"/>
<path d="M176.909 83.1508C177.137 83.3121 178.121 82.2279 179.756 81.9054C181.39 81.5829 182.752 82.1612 182.891 81.9054C182.964 81.7998 182.702 81.4828 182.096 81.2048C181.291 80.8585 180.398 80.7673 179.539 80.9435C178.685 81.1105 177.906 81.5447 177.315 82.1834C176.898 82.6894 176.798 83.0786 176.909 83.1508Z" fill="#263238"/>
<path d="M173.395 96.4728C173.395 96.3782 172.333 96.406 170.643 96.5284C170.215 96.5673 169.803 96.5617 169.675 96.2948C169.558 95.8693 169.569 95.4183 169.709 94.9994C169.898 93.9096 170.096 92.7661 170.304 91.5688C171.115 86.6927 171.61 82.7229 171.416 82.6728C171.221 82.6228 170.404 86.5648 169.592 91.441L169.036 94.8826C168.875 95.4342 168.914 96.0253 169.147 96.5506C169.237 96.6861 169.356 96.7995 169.495 96.8824C169.635 96.9652 169.792 97.0152 169.953 97.0288C170.197 97.0442 170.442 97.0293 170.682 96.9843C172.378 96.7674 173.406 96.5562 173.395 96.4728Z" fill="#263238"/>
<path d="M175.297 77.6796C175.597 78.0521 176.909 77.3182 178.633 76.9179C180.356 76.5176 181.863 76.512 181.935 76.0505C181.935 75.8337 181.579 75.4945 180.89 75.311C180.004 75.0793 179.074 75.0793 178.188 75.311C177.308 75.5214 176.499 75.9585 175.841 76.5787C175.335 77.0513 175.163 77.5017 175.297 77.6796Z" fill="#263238"/>
<path d="M159.4 80.3096C159.823 80.6098 161.096 79.9537 162.736 79.6146C164.377 79.2754 165.789 79.2643 166.028 78.8084C166.128 78.5915 165.833 78.2524 165.166 78.0355C164.248 77.7611 163.273 77.7362 162.342 77.9632C161.41 78.1588 160.548 78.6004 159.845 79.242C159.356 79.7369 159.211 80.1594 159.4 80.3096Z" fill="#263238"/>
<path d="M160.468 64.953C160.497 64.7625 160.547 64.5759 160.618 64.397C160.903 63.7183 161.341 63.1145 161.898 62.6324C162.454 62.1503 163.114 61.8028 163.826 61.617C164.564 61.0303 165.347 60.5023 166.167 60.0379C166.508 58.9921 167.11 58.0506 167.917 57.3026C168.723 56.5547 169.707 56.025 170.776 55.7639C171.844 55.5027 172.962 55.5187 174.023 55.8103C175.083 56.102 176.052 56.6596 176.837 57.4303C177.148 57.4303 177.454 57.4025 177.765 57.3969C178.442 56.6522 179.28 56.0722 180.216 55.7012C181.151 55.3302 182.159 55.178 183.163 55.2564C184.166 55.3347 185.138 55.6414 186.005 56.1531C186.871 56.6648 187.609 57.368 188.162 58.2087C189.008 57.796 189.956 57.6411 190.889 57.763C191.822 57.885 192.698 58.2786 193.409 58.8948C194.12 59.511 194.635 60.3227 194.888 61.2288C195.141 62.1349 195.123 63.0955 194.834 63.9911C196.297 64.4748 197.676 65.5535 198.004 67.0547C198.315 68.4669 197.292 70.1182 195.896 70.2239C196.847 73.6599 197.297 77.8466 197.837 81.5051C198.22 84.0794 195.274 86.2422 195.402 88.0214C196.03 97.0787 192.166 92.7752 187.401 74.7108C187.189 74.607 186.973 74.4902 186.75 74.3605C186.3 74.0881 186.122 73.6711 185.71 73.343C185.299 73.015 184.515 73.2485 183.915 73.4375C182.867 73.7334 181.749 73.6594 180.75 73.228C179.751 72.7966 178.93 72.0342 178.427 71.069C178.049 71.9864 176.759 72.181 175.858 71.8418C174.957 71.5027 174.235 70.7298 173.451 70.1182C172.667 69.5066 171.638 69.034 170.704 69.3676C170.181 69.5511 169.742 69.9737 169.186 70.0293C168.213 70.1405 167.518 69.1119 167.19 68.1889C166.907 67.4161 166.634 66.5209 165.995 66.0539C165.356 65.8878 164.694 65.8351 164.038 65.8982C163.687 66.0149 163.331 66.1595 162.992 66.2818C162.827 66.338 162.658 66.3826 162.486 66.4153C162.273 66.5342 162.069 66.668 161.875 66.8156C158.972 69.0118 157.499 76.2676 157.499 76.2676C156.404 72.042 157.999 68.061 160.468 64.953Z" fill="#263238"/>
<path d="M195.835 64.1634C195.835 64.1634 195.835 64.1245 195.746 64.0689C195.655 63.9829 195.559 63.903 195.457 63.8298C195.063 63.5534 194.622 63.35 194.156 63.2293C193.428 63.043 192.665 63.0335 191.932 63.2015C190.942 63.4093 190.056 63.9583 189.43 64.7528H189.641C189.268 64.0104 188.741 63.3557 188.096 62.8315C187.451 62.3073 186.702 61.9256 185.899 61.7114C184.999 61.4431 184.055 61.3487 183.119 61.4334C182.138 61.5348 181.18 61.7978 180.284 62.2118C178.62 63.0166 177.12 64.1254 175.864 65.4811H176.092C175.166 64.0846 173.746 63.0911 172.116 62.7011C171.067 62.4552 169.973 62.4793 168.935 62.771C167.898 63.0627 166.951 63.6125 166.184 64.3691C166.022 64.5267 165.871 64.6958 165.733 64.8751C165.683 64.9344 165.64 64.9997 165.605 65.0697C165.605 65.0697 165.817 64.8306 166.25 64.4414C166.866 63.8843 167.581 63.4485 168.358 63.157C169.54 62.7052 170.832 62.6256 172.061 62.9291C173.616 63.3255 174.967 64.2894 175.847 65.6312L175.947 65.7869L176.075 65.6535C177.314 64.334 178.784 63.2524 180.412 62.462C181.277 62.0646 182.201 61.8092 183.147 61.7059C184.041 61.6208 184.943 61.7076 185.805 61.9616C186.571 62.1672 187.286 62.5319 187.902 63.032C188.518 63.532 189.021 64.1562 189.38 64.8639L189.463 65.0474L189.586 64.8862C190.174 64.1299 191.004 63.5981 191.938 63.3794C192.651 63.2099 193.393 63.2099 194.106 63.3794C194.728 63.5259 195.315 63.7922 195.835 64.1634Z" fill="#455A64"/>
<path d="M165.806 65.5811C165.861 65.67 165.923 65.7554 165.989 65.8368C166.154 66.0884 166.302 66.3503 166.434 66.6208C166.606 66.9766 166.79 67.427 166.99 67.9496C167.223 68.5765 167.589 69.1455 168.063 69.6176C168.374 69.8732 168.774 69.9952 169.175 69.9568C169.592 69.8958 170 69.7876 170.393 69.6343C170.791 69.4736 171.223 69.4181 171.649 69.4731C172.094 69.5913 172.511 69.7995 172.872 70.0847C173.267 70.3627 173.645 70.6963 174.051 71.0243C174.441 71.4056 174.887 71.7245 175.374 71.9695C175.915 72.1818 176.5 72.2545 177.076 72.1808C177.376 72.1516 177.669 72.0727 177.943 71.9473C178.095 71.8842 178.233 71.7912 178.349 71.6737C178.465 71.5562 178.555 71.4167 178.616 71.2634H178.343C178.711 72.1113 179.353 72.8106 180.167 73.2483C181.024 73.689 181.987 73.8816 182.947 73.8043C183.343 73.7761 183.736 73.7109 184.12 73.6097C184.455 73.4645 184.817 73.3924 185.182 73.3984C185.526 73.446 185.844 73.6086 186.083 73.8599C186.37 74.1067 186.674 74.3316 186.995 74.5327C188.187 75.3683 189.649 75.7273 191.092 75.539C192.36 75.2264 193.469 74.4611 194.212 73.3873C194.863 72.4879 195.226 71.4117 195.251 70.3015L195.146 70.4016C195.574 70.405 195.999 70.3136 196.388 70.1338C196.777 69.9541 197.122 69.6905 197.398 69.3619C197.809 68.867 198.034 68.243 198.031 67.5993C198.038 67.2009 197.957 66.8059 197.792 66.4429C197.752 66.3499 197.704 66.2606 197.648 66.176C197.611 66.1167 197.588 66.0889 197.581 66.0926C197.815 66.5576 197.932 67.0731 197.92 67.5938C197.9 68.2077 197.671 68.7963 197.27 69.2618C197.006 69.5629 196.68 69.8026 196.314 69.964C195.948 70.1254 195.551 70.2045 195.151 70.1959H195.046V70.3015C195.002 71.3639 194.644 72.3894 194.017 73.2483C193.302 74.2584 192.245 74.9754 191.042 75.2666C189.669 75.4363 188.281 75.0874 187.15 74.288C186.843 74.0938 186.551 73.8763 186.278 73.6375C185.994 73.3374 185.618 73.1415 185.21 73.0815C185.001 73.0599 184.791 73.0749 184.587 73.126L184.031 73.2983C183.668 73.3959 183.295 73.4573 182.919 73.4818C182.02 73.5521 181.119 73.3712 180.317 72.9592C179.939 72.75 179.596 72.4837 179.3 72.1697C179.023 71.8548 178.794 71.5007 178.621 71.1188L178.466 70.8019L178.343 71.1299C178.21 71.3544 178.02 71.5401 177.793 71.6688C177.566 71.7975 177.309 71.8648 177.048 71.8639C176.52 71.9315 175.983 71.8666 175.486 71.6748C175.023 71.4421 174.598 71.1423 174.223 70.7852C173.823 70.4572 173.439 70.1291 173.028 69.84C172.634 69.5378 172.182 69.3219 171.699 69.2062C171.236 69.1438 170.764 69.2052 170.331 69.3841C169.955 69.542 169.561 69.654 169.158 69.7177C168.982 69.7405 168.803 69.7276 168.632 69.6799C168.461 69.6321 168.302 69.5504 168.163 69.4397C167.707 68.9969 167.348 68.4651 167.107 67.8773C166.868 67.3658 166.667 66.9155 166.478 66.5652C166.341 66.2909 166.175 66.0319 165.984 65.7923C165.934 65.7145 165.874 65.6435 165.806 65.5811Z" fill="#455A64"/>
<path d="M178.644 97.4346C179.811 98.9247 180 100.915 178.771 102.35C178.524 102.614 178.227 102.827 177.896 102.976C177.566 103.124 177.21 103.206 176.848 103.216C176.486 103.226 176.125 103.163 175.787 103.033C175.449 102.902 175.141 102.706 174.879 102.455C174.321 101.884 173.911 101.186 173.684 100.42C175.057 99.5363 177.276 98.3186 178.644 97.4346Z" fill="#FF9A6C"/>
<path d="M194.779 86.7202C194.714 86.3266 194.729 85.9238 194.824 85.5363C194.919 85.1487 195.091 84.7844 195.331 84.4653C195.57 84.1463 195.872 83.8791 196.218 83.6799C196.563 83.4807 196.946 83.3536 197.342 83.3064C199.366 83.1007 201.79 83.7846 202.491 87.9156C203.714 95.2437 196.108 94.9602 196.058 94.7544C196.008 94.5487 195.263 89.7894 194.779 86.7202Z" fill="#FFBF9D"/>
<path d="M197.192 91.7301C197.22 91.7301 197.336 91.7968 197.564 91.8579C197.726 91.8998 197.894 91.9091 198.059 91.8852C198.224 91.8613 198.383 91.8048 198.526 91.7189C199.249 91.3075 199.699 89.9675 199.51 88.6443C199.426 88.0124 199.2 87.4079 198.849 86.8762C198.744 86.6595 198.588 86.4717 198.394 86.3293C198.2 86.1868 197.975 86.094 197.737 86.0588C197.584 86.0438 197.431 86.0829 197.304 86.1693C197.177 86.2556 197.084 86.3838 197.042 86.5315C196.981 86.7539 197.042 86.8928 197.014 86.9095C196.986 86.9262 196.836 86.815 196.842 86.5036C196.854 86.3146 196.928 86.135 197.053 85.9921C197.231 85.8079 197.475 85.7002 197.731 85.6919C198.042 85.7015 198.345 85.7903 198.611 85.9499C198.878 86.1095 199.099 86.3345 199.255 86.6037C199.671 87.1871 199.94 87.8623 200.039 88.572C200.233 90.0565 199.71 91.5633 198.704 92.047C198.517 92.1383 198.312 92.1858 198.104 92.1858C197.896 92.1858 197.69 92.1383 197.503 92.047C197.236 91.9024 197.164 91.7467 197.192 91.7301Z" fill="#FF9A6C"/>
<path d="M239.759 113.047C239.673 113.113 239.58 113.169 239.481 113.214C239.298 113.308 239.025 113.464 238.658 113.631C237.627 114.119 236.546 114.491 235.433 114.743C234.66 114.912 233.873 115.006 233.082 115.021C232.174 115.03 231.269 114.933 230.385 114.732C228.367 114.215 226.485 113.266 224.869 111.952C224.023 111.294 223.232 110.567 222.506 109.778C221.821 109.049 221.2 108.262 220.649 107.426C219.701 106.022 218.983 104.476 218.526 102.844C218.217 101.747 218.046 100.615 218.014 99.4751C218.014 99.0692 218.014 98.7579 218.014 98.5466C218.011 98.4381 218.022 98.3297 218.047 98.2241C218.047 98.2241 218.047 98.6745 218.109 99.4696C218.177 100.6 218.374 101.72 218.698 102.806C219.178 104.407 219.903 105.925 220.85 107.304C221.396 108.122 222.012 108.892 222.69 109.605C223.408 110.38 224.189 111.094 225.025 111.74C226.605 113.044 228.446 113.992 230.424 114.52C231.288 114.724 232.172 114.828 233.059 114.832C233.834 114.823 234.607 114.743 235.367 114.593C236.471 114.366 237.551 114.033 238.592 113.598C238.959 113.442 239.236 113.308 239.437 113.225C239.534 113.148 239.642 113.088 239.759 113.047Z" fill="#263238"/>
<path d="M215.512 124.006C215.381 123.868 215.27 123.713 215.184 123.544C214.989 123.238 214.722 122.788 214.411 122.215C213.601 120.727 212.886 119.19 212.271 117.612C211.658 116.033 211.143 114.417 210.73 112.774C210.575 112.146 210.464 111.629 210.397 111.273C210.349 111.092 210.325 110.905 210.325 110.717C210.369 110.717 210.564 111.485 210.925 112.724C211.286 113.964 211.826 115.671 212.543 117.512C213.26 119.352 214.016 120.97 214.595 122.126C215.173 123.283 215.512 123.983 215.512 124.006Z" fill="#263238"/>
<path d="M244.274 27.7843L240.215 15.8081C238.647 11.3601 236.623 7.24571 233.209 3.99867C231.808 2.66983 230.468 1.56339 229.657 1.32431C227.344 0.64599 225.337 0.768308 224.953 3.04235C224.953 3.04235 219.215 1.26871 218.459 5.77787C218.459 5.77787 214.25 5.44427 214.222 9.11387C214.222 9.11387 210.942 9.01935 210.436 11.3379C210.349 11.8179 210.394 12.3125 210.566 12.7689C210.738 13.2253 211.032 13.6262 211.414 13.9288L215.184 17.7763L215.256 18.0933C215.536 19.3276 216.113 20.475 216.936 21.4361C217.76 22.3971 218.805 23.1429 219.982 23.6088L224.347 24.6207L228.856 25.7772L229.768 29.0465L244.274 27.7843Z" fill="#FFBF9D"/>
<path d="M230.752 4.46034C230.609 4.65764 230.515 4.88649 230.48 5.12754C230.45 5.4119 230.494 5.69909 230.607 5.96154C230.766 6.30732 230.978 6.62622 231.236 6.90674C231.564 7.25996 231.853 7.64771 232.097 8.06322C232.24 8.31659 232.319 8.60063 232.327 8.89107C232.336 9.18152 232.274 9.46976 232.148 9.73122C231.997 10.0125 231.791 10.2607 231.543 10.4612C231.295 10.6617 231.009 10.8105 230.702 10.8988C230.042 11.0654 229.346 11.0147 228.717 10.7543C226.193 9.6923 224.708 7.32374 224.68 5.54454C224.622 4.85327 224.659 4.15718 224.792 3.47622C224.823 3.22416 224.898 2.97955 225.014 2.75342C225.014 2.75342 224.964 3.0203 224.903 3.49846C224.822 4.1725 224.822 4.85382 224.903 5.52786C224.951 5.98873 225.054 6.44227 225.209 6.87894C225.411 7.36971 225.674 7.83299 225.993 8.25782C226.723 9.2407 227.704 10.0089 228.834 10.4818C229.405 10.7213 230.038 10.772 230.641 10.6264C230.912 10.552 231.166 10.4236 231.387 10.2487C231.607 10.0739 231.791 9.85625 231.925 9.6089C232.04 9.38336 232.098 9.13295 232.093 8.87984C232.088 8.62672 232.021 8.37871 231.897 8.15774C231.664 7.75819 231.39 7.3837 231.08 7.04018C230.816 6.73826 230.603 6.39439 230.452 6.0227C230.345 5.73311 230.316 5.4206 230.368 5.11642C230.403 4.92606 230.483 4.74685 230.602 4.59378C230.691 4.48814 230.752 4.45478 230.752 4.46034Z" fill="#FF9A6C"/>
<path d="M227.394 9.89781C227.468 10.0968 227.504 10.3081 227.499 10.5205C227.539 11.1036 227.401 11.6851 227.105 12.1885C226.855 12.5533 226.518 12.8504 226.125 13.0532C225.732 13.256 225.295 13.3582 224.853 13.3506C223.783 13.3049 222.759 12.9016 221.945 12.2052C220.405 11.0666 219.281 9.45571 218.742 7.61822C218.588 7.06445 218.513 6.49164 218.52 5.91686C218.511 5.70528 218.533 5.49353 218.587 5.28857C218.62 6.05708 218.738 6.81962 218.937 7.56262C219.519 9.32705 220.632 10.8688 222.123 11.9773C222.887 12.6364 223.846 13.027 224.853 13.0893C225.255 13.1005 225.655 13.0149 226.018 12.8398C226.381 12.6647 226.696 12.4052 226.938 12.0829C227.229 11.6116 227.385 11.0691 227.388 10.515C227.399 10.1258 227.371 9.90337 227.394 9.89781Z" fill="#FF9A6C"/>
<path d="M223.04 12.7501C223.04 12.7501 223.074 12.789 223.107 12.878C223.152 13.004 223.184 13.1344 223.201 13.2672C223.232 13.5172 223.21 13.7708 223.137 14.012C223.064 14.2531 222.942 14.4766 222.779 14.6683C222.544 14.9633 222.24 15.1961 221.894 15.3463C221.548 15.4966 221.17 15.5597 220.794 15.5301C219.883 15.4384 219.029 15.0473 218.364 14.4181C217.167 13.3526 216.111 12.1381 215.223 10.8041C214.878 10.2981 214.617 9.87557 214.45 9.57533C214.35 9.42838 214.273 9.26716 214.222 9.09717C214.261 9.09717 214.661 9.70877 215.39 10.6873C216.315 11.9655 217.374 13.1416 218.548 14.1957C219.172 14.7761 219.964 15.1422 220.811 15.241C221.171 15.2706 221.533 15.2134 221.867 15.0742C222.154 14.9423 222.412 14.7531 222.623 14.5182C222.937 14.1739 223.104 13.7214 223.09 13.256C223.074 12.9391 223.012 12.7612 223.04 12.7501Z" fill="#FF9A6C"/>
<path d="M234.321 18.5046C234.054 17.9241 233.74 17.3662 233.382 16.8366C232.951 16.3746 232.486 15.9453 231.992 15.5522C232.628 15.7513 233.19 16.1362 233.605 16.6575C234.02 17.1787 234.27 17.8124 234.321 18.4768V18.5046Z" fill="#FF9A6C"/>
<path d="M215.317 17.5429C215.162 15.7303 215.017 13.8566 215.634 12.1441C215.798 11.6408 216.053 11.1717 216.385 10.7597C216.546 10.5651 223.029 7.06787 223.029 7.06787C224.247 7.84071 224.28 10.0981 223.029 11.6382C222.384 12.4444 221.205 13.3729 220.538 14.1513C219.871 14.9297 220.155 16.2585 220.827 17.0425C223.213 14.1179 226.671 13.4786 230.246 14.6906" fill="#FFBF9D"/>
<path d="M230.257 14.6907C229.334 14.4371 228.388 14.2751 227.433 14.207C226.351 14.1486 225.268 14.3132 224.252 14.6907C222.94 15.1843 221.786 16.0262 220.916 17.126L220.816 17.2483L220.716 17.126C220.292 16.6286 220.044 16.0052 220.01 15.3523C219.989 15.0034 220.064 14.6553 220.227 14.346C220.414 14.0566 220.636 13.7914 220.889 13.5565C221.372 13.0783 221.884 12.6279 222.373 12.1331C222.878 11.6698 223.273 11.1 223.53 10.4651C223.756 9.89337 223.834 9.27375 223.757 8.66365C223.731 8.37727 223.644 8.09979 223.502 7.84961C223.36 7.59943 223.167 7.38226 222.935 7.21249H223.074L217.964 9.99249L216.852 10.6208L216.591 10.7765C216.51 10.8147 216.439 10.8719 216.385 10.9433C216.268 11.0948 216.162 11.2546 216.068 11.4214C215.74 12.0452 215.513 12.717 215.395 13.4119C215.242 14.4198 215.197 15.4413 215.262 16.4588C215.262 16.7979 215.29 17.0704 215.301 17.2817C215.308 17.3779 215.308 17.4745 215.301 17.5708C215.27 17.4793 215.253 17.3837 215.251 17.2872C215.251 17.1037 215.195 16.8257 215.167 16.4643C215.059 15.4395 215.074 14.4054 215.212 13.3841C215.318 12.6625 215.543 11.9635 215.879 11.3158C215.974 11.1346 216.083 10.9616 216.207 10.7987C216.278 10.7094 216.367 10.6356 216.468 10.5819L216.735 10.4151L217.847 9.77565C219.387 8.90829 221.105 7.96865 222.94 6.99565L223.012 6.95117L223.085 7.00121C223.356 7.19307 223.582 7.44168 223.747 7.72974C223.912 8.01781 224.012 8.3384 224.041 8.66921C224.129 9.32765 224.046 9.99758 223.802 10.6152C223.532 11.2967 223.112 11.9086 222.573 12.4055C222.078 12.9059 221.561 13.3563 221.089 13.8233C220.855 14.0391 220.648 14.2817 220.472 14.5461C220.332 14.8112 220.267 15.1089 220.282 15.4079C220.312 16.0019 220.534 16.57 220.916 17.0259H220.716C221.507 16.026 222.534 15.2372 223.704 14.7299C224.874 14.2226 226.151 14.0124 227.422 14.118C228.134 14.1687 228.838 14.2955 229.523 14.4961C229.757 14.5684 229.935 14.6351 230.079 14.6796C230.224 14.7241 230.263 14.6796 230.257 14.6907Z" fill="#FF9A6C"/>
<path d="M177.387 103.489C177.9 103.172 178.357 102.772 178.738 102.305C179.175 101.734 179.429 101.046 179.467 100.328C179.506 99.6112 179.327 98.8991 178.955 98.285C178.802 98.0278 178.615 97.7922 178.399 97.5844H178.566C177.237 98.3017 176.092 98.9855 175.274 99.4859C174.851 99.7774 174.407 100.038 173.945 100.264C174.322 99.914 174.732 99.6012 175.169 99.3303C175.964 98.7743 177.098 98.0626 178.427 97.3342L178.521 97.2842L178.599 97.3565C178.825 97.5829 179.021 97.837 179.183 98.1126C179.615 98.8465 179.795 99.702 179.694 100.548C179.599 101.232 179.316 101.877 178.877 102.411C178.587 102.767 178.23 103.064 177.826 103.283C177.695 103.381 177.546 103.451 177.387 103.489Z" fill="#263238"/>
<path d="M157.288 133.908L123.733 162.475L83.0395 151.911L80.6765 168.881C80.6765 168.881 103.1 176.164 117.25 180.796C120.742 181.94 124.46 182.214 128.081 181.592C131.703 180.971 135.117 179.474 138.028 177.232L163.048 156.888L157.288 133.908Z" fill="#FFBF9D"/>
<path d="M158.077 129.026L135.276 151.895L148.753 168.769L154.052 174.757L170.065 162.937L158.077 129.026Z" fill="#FF725E"/>
<path d="M171.994 209.107C171.916 209.107 169.597 195.963 166.817 179.717C164.037 163.471 161.841 150.294 161.919 150.277C161.997 150.26 164.315 163.421 167.101 179.673C169.887 195.924 172.077 209.096 171.994 209.107Z" fill="#263238"/>
<path d="M210.783 152.061L187.765 157.181L192.204 177.137L215.221 172.017L210.783 152.061Z" fill="white"/>
<path d="M218.053 155.086C218.05 155.13 218.04 155.173 218.025 155.214L217.903 155.57C217.786 155.903 217.619 156.359 217.419 156.932C217.219 157.505 216.941 158.244 216.596 159.067C216.251 159.89 215.89 160.846 215.412 161.847C214.934 162.848 214.45 163.999 213.855 165.183C213.26 166.367 212.604 167.618 211.904 168.93C210.458 171.527 208.757 174.318 206.799 177.142C204.842 179.967 202.796 182.519 200.861 184.782C199.877 185.894 198.949 186.961 198.026 187.907C197.103 188.852 196.247 189.741 195.44 190.525C194.634 191.309 193.884 191.993 193.216 192.599C192.549 193.205 191.982 193.711 191.498 194.112L190.386 195.04L190.097 195.279L189.992 195.351C189.992 195.351 189.992 195.313 190.075 195.257L190.353 194.996L191.426 194.028C191.893 193.611 192.466 193.1 193.094 192.483C193.722 191.865 194.49 191.187 195.268 190.375C196.046 189.563 196.936 188.707 197.82 187.74C198.704 186.772 199.655 185.722 200.633 184.604C202.552 182.347 204.57 179.783 206.538 176.976C208.506 174.168 210.185 171.382 211.642 168.797C212.348 167.496 213.038 166.262 213.61 165.077C214.183 163.893 214.722 162.787 215.201 161.769C215.679 160.752 216.062 159.812 216.418 158.989C216.774 158.166 217.058 157.46 217.286 156.876C217.514 156.292 217.691 155.864 217.842 155.531C217.903 155.392 217.947 155.281 217.992 155.186C218.008 155.15 218.029 155.117 218.053 155.086Z" fill="#263238"/>
<path d="M113.619 145.628C113.492 146.668 126.886 161.319 126.886 161.319L156.354 136.06L165.933 144.628C165.933 144.628 144.639 171.038 137.867 178.16C132.368 183.942 122.91 186.5 116.055 179.694C109.199 172.889 96.1055 156.554 96.1055 156.554L113.619 145.628Z" fill="#B5675E"/>
<path d="M101.115 225.097C99.4136 214.394 96.5447 198.042 96.5447 198.042L98.7687 146.268L91.8798 129.36C91.8798 129.36 79.0918 128.937 76.0783 129.393C74.5716 129.616 54.3943 129.16 54.3943 129.16L34.0892 135.609L32.7492 157.071C31.2981 165.327 32.5435 166.667 34.2115 174.863L37.6698 192.288L39.1877 200.695L33.144 225.097H101.115Z" fill="#DFB3C1"/>
<path d="M33.0495 172.578C33.0495 172.578 19.1495 197.437 11.4155 198.782C3.68156 200.128 2.96432 185.193 2.96432 185.193L19.7944 160.729L33.0495 172.578Z" fill="#FFBF9D"/>
<path d="M15.8079 134.319C15.8079 134.319 13.7396 132.14 12.3107 132.195C10.8818 132.251 6.06126 134.847 5.25506 135.159C4.44886 135.47 2.03582 137.444 1.91906 138.906C1.8023 140.369 2.21374 154.474 2.14702 154.93C2.0803 155.386 11.6324 158.972 11.6324 158.972C11.6324 158.972 14.379 157.794 14.9684 154.964C15.5577 152.134 15.6634 150.671 15.9692 149.581C16.275 148.492 17.5871 148.041 18.0431 147.58C18.499 147.118 20.1503 146.229 19.8334 144.477C19.5165 142.726 18.549 142.331 18.549 142.331C18.549 142.331 19.8779 141.03 19.1717 139.757C18.9661 139.385 18.6747 139.068 18.3216 138.832C17.9686 138.596 17.5643 138.448 17.1423 138.4L17.6983 137.21L17.9374 136.955C18.0322 136.855 18.1018 136.733 18.1404 136.601C18.179 136.469 18.1856 136.329 18.1595 136.194C18.1334 136.059 18.0754 135.932 17.9904 135.823C17.9054 135.715 17.7957 135.628 17.6705 135.57L15.8079 134.319Z" fill="#FFBF9D"/>
<path d="M12.1495 144.873C12.2384 144.984 13.4394 144.05 15.163 143.405C16.8866 142.76 18.4045 142.637 18.3989 142.493C18.3933 142.348 16.8087 142.259 14.9962 142.954C13.1836 143.649 12.0605 144.789 12.1495 144.873Z" fill="#894943"/>
<path d="M11.827 140.608C11.8993 140.725 13.0113 140.135 14.4402 139.579C15.8691 139.023 17.0867 138.706 17.0645 138.567C17.0423 138.428 15.7468 138.567 14.2845 139.123C12.8222 139.679 11.7547 140.48 11.827 140.608Z" fill="#894943"/>
<path d="M8.4743 137.444C8.95515 137.306 9.41522 137.104 9.84206 136.844C10.8762 136.291 11.9877 135.898 13.1391 135.676C14.282 135.482 15.457 135.678 16.4751 136.232C17.2369 136.682 17.5371 137.183 17.5871 137.133C17.6372 137.083 17.4259 136.521 16.6364 135.949C15.584 135.246 14.3034 134.972 13.0557 135.181C11.8498 135.404 10.6994 135.861 9.6697 136.527C8.8913 137.038 8.44094 137.389 8.4743 137.444Z" fill="#894943"/>
<path d="M13.684 132.918C13.6451 133.046 14.1566 133.308 14.4179 133.919C14.6793 134.531 14.5792 135.07 14.7015 135.126C14.8238 135.181 14.885 135.026 14.9628 134.759C15.0481 134.408 15.0088 134.038 14.8516 133.713C14.7025 133.387 14.4479 133.121 14.1288 132.957C13.8842 132.841 13.684 132.863 13.684 132.918Z" fill="#894943"/>
<path d="M10.2757 148.598C10.3814 148.509 9.96994 147.881 9.93658 147.008C9.90322 146.135 10.2201 145.462 10.1034 145.39C9.98662 145.317 9.39726 145.979 9.45842 147.058C9.51958 148.136 10.1923 148.703 10.2757 148.598Z" fill="#894943"/>
<path d="M6.23917 144.7C6.35037 144.628 6.15577 144.144 6.31701 143.549C6.47825 142.954 6.87301 142.615 6.78961 142.492C6.70621 142.37 6.59501 142.454 6.38373 142.604C6.11098 142.81 5.91522 143.102 5.82773 143.432C5.74189 143.758 5.77135 144.104 5.91113 144.411C6.05013 144.644 6.18913 144.733 6.23917 144.7Z" fill="#894943"/>
<path d="M3.86504 142.253C3.99292 142.22 3.80944 141.369 4.23756 140.452C4.66568 139.535 5.3996 139.101 5.34956 138.979C5.29952 138.856 5.08824 138.951 4.79356 139.145C4.37447 139.415 4.04384 139.801 3.8428 140.257C3.63456 140.709 3.5649 141.212 3.64264 141.703C3.676 142.081 3.80944 142.276 3.86504 142.253Z" fill="#894943"/>
<path d="M12.4108 158.094L16.3028 177.371C16.3028 177.371 20.8119 182.419 18.8326 188.83C16.8532 195.241 11.6379 199.794 7.23441 199.577C2.83089 199.361 1.52985 193.856 0.484569 189.747C-0.560711 185.639 2.15257 154.931 2.15257 154.931L12.4108 158.094Z" fill="#FFBF9D"/>
<path d="M12.6888 158.483C12.6736 158.837 12.696 159.191 12.7555 159.54C12.8333 160.218 12.9612 161.208 13.1669 162.392C13.5617 164.794 14.2789 168.086 15.1574 171.688C15.5184 173.404 16.0186 175.086 16.6531 176.72C17.2925 178.21 17.943 179.5 18.3211 180.612C18.7573 181.834 18.9463 183.131 18.8771 184.426C18.9173 184.342 18.9436 184.252 18.9549 184.159C19.0181 183.903 19.0535 183.64 19.0605 183.376C19.106 182.407 18.9799 181.437 18.688 180.512C18.3211 179.339 17.6983 178.021 17.0923 176.548C16.4868 174.918 16.0036 173.245 15.6467 171.544C14.7515 167.952 14.0065 164.683 13.5283 162.303C13.3059 161.191 13.1206 160.251 12.9723 159.484C12.9186 159.14 12.8234 158.804 12.6888 158.483Z" fill="#894943"/>
<path d="M15.908 164.588C15.908 164.588 22.9081 151.166 25.1988 146.996C29.9581 138.345 33.9891 135.826 33.9891 135.826L35.5181 171.332L30.9033 181.496L15.908 164.588Z" fill="#DFB3C1"/>
<g opacity="0.3">
<path d="M98.9077 211.765C93.3477 197.575 90.6344 178.788 85.0911 164.599L80.0037 164.816C79.4477 175.78 79.4199 189.43 80.6765 197.114C82.161 206.16 87.5486 212.777 96.6615 213.794C97.312 213.872 98.752 213.733 99.0578 213.155C99.0788 212.686 99.0281 212.218 98.9077 211.765Z" fill="black"/>
</g>
<path d="M37.1806 150.86C37.1806 150.86 37.1806 150.905 37.1472 150.988C37.1138 151.072 37.0694 151.205 37.0138 151.35C36.8877 151.691 36.7024 152.152 36.4578 152.734C36.341 153.034 36.2076 153.368 36.0686 153.729C35.9296 154.091 35.8184 154.508 35.6794 154.941C35.5404 155.375 35.3958 155.837 35.2401 156.331C35.0844 156.826 34.9844 157.36 34.8454 157.916C34.2041 160.527 33.8536 163.201 33.8001 165.889C33.7335 169.18 33.953 172.471 34.4562 175.725C35.507 182.658 36.947 188.863 37.7922 193.378C38.2425 195.635 38.5928 197.464 38.8152 198.732L39.0654 200.189C39.0932 200.344 39.1099 200.467 39.1266 200.572C39.1328 200.617 39.1328 200.661 39.1266 200.706C39.1085 200.665 39.0954 200.622 39.0876 200.578L38.9987 200.2C38.9264 199.844 38.8208 199.36 38.6929 198.754C38.4204 197.47 38.0424 195.652 37.5809 193.417C36.6579 188.913 35.1845 182.725 34.1281 175.769C33.6234 172.499 33.4113 169.191 33.4943 165.883C33.5604 163.179 33.9335 160.491 34.6063 157.872C34.7508 157.316 34.8676 156.76 35.0233 156.281C35.179 155.803 35.3458 155.325 35.4903 154.886C35.6349 154.447 35.7739 154.052 35.8962 153.679C36.0185 153.307 36.1909 152.99 36.3132 152.69C36.5634 152.134 36.758 151.661 36.9026 151.327L37.0582 150.977L37.1806 150.86Z" fill="#263238"/>
<path d="M79.6367 197.359C79.557 197.405 79.4733 197.444 79.3865 197.476L78.6526 197.754C78.0188 197.993 77.0847 198.31 75.9282 198.71C73.6208 199.488 70.396 200.478 66.7931 201.401C63.1903 202.324 59.8876 203.019 57.4857 203.453C56.2903 203.669 55.3173 203.831 54.639 203.925L53.8606 204.031C53.77 204.04 53.6787 204.04 53.5881 204.031C53.6723 203.991 53.7624 203.964 53.855 203.953L54.6223 203.792L57.4523 203.236C59.8376 202.752 63.1235 202.035 66.7209 201.112C70.3182 200.189 73.543 199.233 75.8671 198.504L78.6193 197.637L79.3699 197.409C79.4556 197.378 79.5457 197.361 79.6367 197.359Z" fill="#263238"/>
<path d="M55.5063 56.2625C54.8947 55.6204 54.1428 55.1286 53.3093 54.8258C52.4759 54.5229 51.5836 54.4171 50.7025 54.5167C49.9908 54.6001 49.2069 54.8113 48.5953 54.4388C48.2003 54.1088 47.8622 53.7163 47.5945 53.2768C47.3327 52.9862 47.015 52.7515 46.6604 52.5866C46.3058 52.4217 45.9215 52.33 45.5307 52.317C45.1398 52.3041 44.7503 52.3701 44.3856 52.5111C44.0208 52.6521 43.6883 52.8653 43.4078 53.1378C43.1839 53.4498 42.9096 53.7223 42.596 53.944C41.2005 54.6668 39.677 52.048 38.287 52.7819C38.9099 53.0263 39.4433 53.455 39.816 54.0107C39.9948 54.2931 40.0739 54.6272 40.0407 54.9597C40.0074 55.2923 39.8637 55.6041 39.6325 55.8455C38.3259 56.9575 36.202 54.411 34.7453 55.3507C33.9613 55.8566 33.8501 57.1855 32.9383 57.4023C32.5782 57.4359 32.2149 57.4058 31.8652 57.3133C31.2591 57.2675 30.6582 57.4531 30.1836 57.8328C29.709 58.2125 29.3959 58.7581 29.3076 59.3594C29.1964 60.3936 29.7135 61.6557 28.9351 62.3396C28.4514 62.7621 27.723 62.6899 27.0892 62.5898C27.095 63.5423 27.3215 64.4805 27.7508 65.3309C26.9263 65.8423 26.3322 66.6537 26.0937 67.5942C25.8552 68.5348 25.9908 69.5312 26.472 70.3738C25.608 70.9648 24.8692 71.7206 24.2981 72.5978C24.0149 73.0366 23.8611 73.5462 23.8542 74.0684C23.8474 74.5905 23.9877 75.104 24.2591 75.5501C24.4148 75.7159 24.5458 75.9032 24.6483 76.1061C24.7179 76.3534 24.7179 76.615 24.6483 76.8623C24.4426 77.8297 24.0145 78.7638 24.0367 79.7479C24.059 80.7321 24.7873 81.8218 25.7715 81.744C25.9994 81.744 26.2552 81.6495 26.4442 81.7773C26.5118 81.8325 26.5674 81.9009 26.6076 81.9784C26.6477 82.0558 26.6716 82.1407 26.6777 82.2277C26.7413 82.9336 26.6906 83.6452 26.5276 84.3349C26.3664 85.0347 26.4757 85.7695 26.8334 86.3921C27.2449 86.9481 28.2067 87.1705 28.6571 86.6201C28.368 87.7321 28.0807 88.8274 27.7953 89.9061C27.6229 90.5621 27.4839 91.3461 27.9565 91.8298C28.5737 92.4581 29.7024 91.9688 30.1805 91.2293C30.6587 90.4899 30.7866 89.5613 31.2925 88.8274C31.521 88.5491 31.7221 88.2493 31.893 87.9323C31.9987 87.6654 32.0376 87.3763 32.26 87.1705C32.7048 86.8091 33.372 87.4319 33.3164 87.999C33.1678 88.5562 32.8607 89.0584 32.4323 89.4446C32.0709 89.8894 31.7763 90.5177 32.0654 91.0125C32.2044 91.2516 32.4601 91.4073 32.6214 91.6519C33.0829 92.4915 31.8541 93.3199 31.704 94.2429C31.5928 94.9379 32.0987 95.5717 32.5991 96.0777C33.2052 96.6893 34.3839 97.1897 34.7731 96.4168C34.9065 96.1499 34.8621 95.8219 34.9677 95.5439C35.1279 95.2304 35.3628 94.9612 35.6516 94.7599C36.3095 94.1684 36.776 93.394 36.9915 92.5359C36.2632 93.4311 35.4848 94.6154 35.9963 95.6551C36.2578 96.0616 36.5782 96.427 36.9471 96.7393C37.6031 97.4232 38.0035 98.3183 38.6484 99.0133C39.2934 99.7083 40.3553 100.186 41.1893 99.7306C41.0386 100.189 41.0481 100.685 41.2162 101.137C41.3843 101.59 41.701 101.972 42.1146 102.22C42.5281 102.469 43.0139 102.57 43.4923 102.507C43.9707 102.443 44.4134 102.219 44.7477 101.871C44.898 101.665 45.0868 101.489 45.3037 101.354C45.5792 101.288 45.8673 101.298 46.1377 101.382C46.9751 101.529 47.8367 101.441 48.6274 101.129C49.4182 100.817 50.1074 100.293 50.6191 99.6138L49.7684 99.3136C51.4364 99.1079 53.1711 98.8743 54.5611 97.9347C55.9511 96.9951 56.863 95.1102 56.1457 93.5868C55.8399 92.9307 55.245 92.2524 55.5175 91.5796C55.6464 91.3646 55.8189 91.1788 56.0238 91.0343C56.2286 90.8897 56.4615 90.7895 56.7073 90.7401L62.6621 88.6829C63.6239 88.3493 64.6359 87.9823 65.2808 87.1928C65.9258 86.4033 65.9869 85.0522 65.1418 84.4851C65.6103 83.5635 66.3291 82.7927 67.2157 82.2611C68.2054 81.7051 69.3563 81.4159 70.3738 80.8766C71.3913 80.3373 72.3198 79.3532 72.2531 78.2023C72.1863 77.0513 70.5851 76.1562 69.8122 76.9846C69.979 75.2555 73.0648 75.1665 73.3372 73.4485C73.5596 72.0585 71.7805 71.319 70.8686 70.2459C71.0577 69.7622 71.5525 69.4508 71.7582 68.9727C72.1863 67.9719 71.1522 66.9655 70.1681 66.4873C69.1839 66.0092 67.9885 65.531 67.755 64.4635C67.5215 63.396 68.4611 62.1505 67.8885 61.1942C67.7191 60.9341 67.458 60.7473 67.1572 60.671C66.8563 60.5948 66.5377 60.6347 66.2649 60.7828C65.4865 58.7812 61.7224 60.2601 60.6382 58.4087C60.5419 58.2666 60.4968 58.096 60.5103 57.9249C60.5408 57.7807 60.6078 57.6467 60.7049 57.5357C61.2081 57.051 61.7682 56.6291 62.3729 56.2792C62.9289 55.8566 63.3904 55.1672 63.1458 54.4889C62.9011 53.8105 61.6668 53.8495 61.6779 54.55C61.496 54.4046 61.2835 54.3025 61.0562 54.2514C60.829 54.2003 60.5932 54.2016 60.3666 54.2552C60.1399 54.3087 59.9285 54.4132 59.7482 54.5606C59.5679 54.708 59.4236 54.8945 59.3261 55.106C59.0544 54.8422 58.7011 54.6787 58.3242 54.6423C57.9473 54.6059 57.5692 54.6989 57.2522 54.9059C56.6336 55.3397 56.1237 55.9105 55.7621 56.5739" fill="#263238"/>
<path d="M45.932 78.2469C46.6326 75.4002 48.8121 73.1428 51.1918 71.4359C52.16 70.6579 53.3063 70.1325 54.5278 69.9069C55.1349 69.8031 55.7591 69.8795 56.3233 70.1265C56.8875 70.3735 57.367 70.7804 57.7025 71.2969L57.4746 73.343C57.6358 76.6011 55.0449 79.2644 53.7549 82.2668C53.1989 83.5734 52.7263 85.1468 51.4086 85.675C50.6942 85.9157 49.916 85.8841 49.2235 85.5861C46.488 84.5464 45.2259 81.088 45.932 78.2469Z" fill="#FF725E"/>
<path d="M45.1925 93.2868C44.3493 92.0054 43.9825 90.4686 44.1563 88.9445C44.33 87.4203 45.0333 86.0055 46.1433 84.9468C45.0313 83.39 45.5428 81.0937 46.8272 79.6592C48.1115 78.2248 49.9519 77.4352 51.7311 76.7236C52.882 72.3701 57.9527 69.4956 62.2951 70.7466C64.7193 67.494 69.6009 67.1826 73.4151 68.4892C74.3268 68.8761 75.2892 69.1307 76.2729 69.2454C76.9995 69.2286 77.724 69.1617 78.4413 69.0452C82.4223 68.6894 86.2253 71.6473 87.6098 75.3947C87.7851 76.0096 88.0412 76.5986 88.3715 77.1461C88.9281 77.7782 89.5612 78.3385 90.2563 78.8141C90.9478 79.4042 91.5043 80.1361 91.8881 80.9601C92.2718 81.7842 92.4738 82.6811 92.4803 83.5902C92.4803 85.1303 91.9243 86.7371 92.4803 88.1605C92.775 88.8777 93.3366 89.4671 93.559 90.2066C94.1984 92.3527 91.7631 94.4044 92.0967 96.6172C92.1634 97.0676 92.3469 97.4902 92.4525 97.935C92.6677 98.8544 92.5412 99.8207 92.0967 100.654C91.7575 101.288 91.2238 101.855 91.1515 102.572C91.1636 103.118 91.2477 103.66 91.4017 104.184C91.6074 105.508 88.5661 110.428 87.4041 111.09L53.6215 109.9C52.3573 109.554 51.2317 108.825 50.4001 107.812C49.5684 106.799 49.0719 105.553 48.9789 104.246C49.0133 103.81 48.9226 103.374 48.7176 102.989C48.4665 102.716 48.1617 102.499 47.8224 102.35C45.6985 101.087 45.5706 98.0906 45.9042 95.6387C45.9653 95.2985 45.9653 94.9502 45.9042 94.6101C45.7585 94.1256 45.5164 93.6755 45.1925 93.2868Z" fill="#263238"/>
<path d="M54.867 93.7761C55.0338 87.7936 59.087 81.0882 65.153 78.4305C68.9782 76.7625 71.8972 76.8682 73.8766 76.7236C76.6526 76.583 79.4058 77.2888 81.7718 78.7475C83.6122 79.2701 90.1618 85.8142 90.2174 92.6141C90.2786 100.159 90.0562 109.383 88.8552 114.943C86.4422 126.135 77.7352 127.097 77.7352 127.097V132.307C73.3706 141.792 57.7192 142.165 54.5667 131.061L54.867 93.7761Z" fill="#FFBF9D"/>
<path d="M72.9091 112.28C72.9903 111.746 73.263 111.259 73.6764 110.912C74.0533 110.588 74.5263 110.396 75.0225 110.367C75.5187 110.338 76.0108 110.473 76.423 110.751C77.257 111.307 77.3627 112.302 77.207 113.397C76.74 114.042 76.3952 114.676 75.6002 114.748C75.4778 114.748 75.3555 114.748 75.2332 114.748C74.6142 114.743 74.0194 114.507 73.5652 114.087C73.3276 113.854 73.1454 113.57 73.0318 113.258C72.9183 112.945 72.8764 112.611 72.9091 112.28Z" fill="#894943"/>
<path d="M86.3866 101.316C86.3721 101.694 86.2094 102.051 85.9337 102.31C85.658 102.569 85.2914 102.709 84.9132 102.7C84.7281 102.705 84.5439 102.673 84.3714 102.606C84.1989 102.539 84.0417 102.438 83.909 102.308C83.7763 102.179 83.6708 102.025 83.5988 101.854C83.5268 101.684 83.4897 101.501 83.4898 101.316C83.5071 100.937 83.6715 100.581 83.9477 100.323C84.224 100.064 84.5904 99.9234 84.9688 99.9311C85.1534 99.9266 85.337 99.9591 85.5088 100.027C85.6807 100.094 85.8372 100.196 85.9694 100.325C86.1015 100.454 86.2064 100.608 86.2781 100.778C86.3497 100.948 86.3866 101.131 86.3866 101.316Z" fill="#263238"/>
<path d="M87.3874 96.7841C87.1984 96.962 86.1475 96.0947 84.6074 96.0113C83.0673 95.9279 81.8663 96.6451 81.7106 96.445C81.6328 96.356 81.833 96.028 82.35 95.6888C83.053 95.2683 83.8682 95.0742 84.6852 95.1328C85.4986 95.1706 86.2783 95.4688 86.9092 95.9835C87.3374 96.356 87.4819 96.7063 87.3874 96.7841Z" fill="#263238"/>
<path d="M77.624 108.588C77.624 108.499 78.6026 108.382 80.1816 108.271C80.582 108.271 80.96 108.193 81.0434 107.926C81.1004 107.516 81.0305 107.099 80.8433 106.731L79.8314 103.634C78.4358 99.2357 77.4461 95.6217 77.6074 95.5661C77.7686 95.5105 79.0641 99.0355 80.4596 103.439C80.7932 104.521 81.1139 105.557 81.4215 106.547C81.6437 107.042 81.685 107.599 81.5383 108.121C81.4746 108.26 81.3798 108.382 81.2612 108.478C81.1426 108.575 81.0034 108.643 80.8544 108.677C80.6318 108.726 80.4037 108.744 80.1761 108.732C78.5804 108.721 77.624 108.677 77.624 108.588Z" fill="#263238"/>
<path d="M77.713 127.08C72.377 126.873 67.2034 125.189 62.7677 122.215C62.7677 122.215 66.3539 130.394 77.7074 129.96L77.713 127.08Z" fill="#894943"/>
<path d="M87.1094 91.6687C86.8258 92.0357 85.6471 91.7132 84.246 91.7521C82.8449 91.791 81.6717 92.0968 81.3826 91.7521C81.2547 91.5798 81.4271 91.1961 81.9386 90.857C82.6251 90.4157 83.4244 90.1821 84.2404 90.1842C85.0531 90.1618 85.8548 90.3763 86.5478 90.8014C87.076 91.1294 87.2317 91.4908 87.1094 91.6687Z" fill="#263238"/>
<path d="M69.1116 100.904C69.1024 101.282 69.2405 101.649 69.4968 101.927C69.753 102.205 70.1074 102.372 70.485 102.394C70.6694 102.411 70.8554 102.392 71.0322 102.336C71.209 102.281 71.3729 102.191 71.5143 102.071C71.6557 101.952 71.7717 101.805 71.8556 101.64C71.9396 101.475 71.9896 101.294 72.0028 101.109C72.0121 100.732 71.8738 100.366 71.6174 100.089C71.3609 99.8114 71.0066 99.6451 70.6295 99.625C70.4454 99.6066 70.2595 99.6254 70.0827 99.6802C69.906 99.735 69.742 99.8246 69.6005 99.9438C69.459 100.063 69.3429 100.209 69.2589 100.374C69.1749 100.539 69.1249 100.719 69.1116 100.904Z" fill="#263238"/>
<path d="M66.0425 96.2278C66.2149 96.4169 67.3269 95.6273 68.8893 95.6718C70.4516 95.7163 71.5803 96.5058 71.7527 96.3168C71.8361 96.2334 71.6581 95.8887 71.1689 95.5161C70.5 95.0382 69.7002 94.778 68.8781 94.7711C68.0676 94.7517 67.2723 94.9934 66.6097 95.4605C66.1204 95.7997 65.948 96.1389 66.0425 96.2278Z" fill="#263238"/>
<path d="M65.948 91.4241C66.2538 91.7799 67.4604 91.4241 68.9115 91.4241C70.3627 91.4241 71.5803 91.7076 71.8639 91.3407C71.9918 91.1628 71.8083 90.7847 71.2745 90.4622C70.5477 90.0463 69.7234 89.8313 68.886 89.8391C68.0487 89.8469 67.2285 90.0773 66.5096 90.5067C65.9814 90.8848 65.809 91.2462 65.948 91.4241Z" fill="#263238"/>
<path d="M56.0957 104.557C56.1402 103.717 55.2784 101.682 54.4277 101.505C52.2037 101.038 48.2227 100.999 47.878 106.625C47.4332 114.348 55.2561 113.236 55.2839 112.986C55.3117 112.736 55.94 107.459 56.0957 104.557Z" fill="#FFBF9D"/>
<path d="M53.3324 110.044C53.299 110.044 53.1934 110.133 52.9598 110.222C52.6338 110.339 52.2751 110.325 51.959 110.183C51.164 109.833 50.5579 108.515 50.608 107.109C50.6295 106.448 50.7966 105.801 51.0973 105.213C51.1854 104.978 51.329 104.768 51.5158 104.6C51.7026 104.433 51.9272 104.313 52.1703 104.251C52.3262 104.217 52.489 104.24 52.6295 104.316C52.77 104.391 52.8792 104.514 52.9376 104.662C53.0266 104.885 52.971 105.035 53.0099 105.052C53.0488 105.068 53.1823 104.935 53.1433 104.612C53.11 104.419 53.012 104.242 52.8653 104.112C52.7659 104.026 52.6503 103.96 52.5252 103.919C52.4002 103.878 52.2682 103.862 52.137 103.873C51.8165 103.916 51.5124 104.041 51.2543 104.235C50.9962 104.43 50.7927 104.688 50.6636 104.985C50.2976 105.631 50.0935 106.356 50.0687 107.098C50.0242 108.649 50.7247 110.15 51.82 110.539C52.023 110.613 52.2399 110.64 52.4547 110.618C52.6694 110.596 52.8763 110.525 53.0599 110.411C53.3101 110.233 53.3602 110.061 53.3324 110.044Z" fill="#894943"/>
<path d="M91.9188 92.7974C90.4176 91.741 89.4946 90.3622 89.6948 88.5385C88.6495 88.7887 87.6765 87.4265 87.1205 86.4813C86.5645 85.5361 85.8584 85.0635 85.9584 83.9904C86.0016 83.7812 85.9881 83.5644 85.9195 83.3621C85.7287 83.0786 85.436 82.8795 85.1022 82.8061C84.2959 82.4954 83.5804 81.9876 83.0209 81.3291C82.4615 80.6705 82.076 79.8823 81.8996 79.0364C80.2021 79.6704 78.3733 79.871 76.5787 79.6202C76.147 80.1794 75.5803 80.6197 74.9318 80.8999C74.2833 81.18 73.5743 81.2909 72.8712 81.2219C72.1682 81.153 71.4941 80.9066 70.9124 80.5059C70.3306 80.1051 69.8602 79.5632 69.5453 78.9308C69.2595 79.3859 68.8793 79.7743 68.4303 80.0698C67.9814 80.3652 67.4743 80.5608 66.9432 80.6433C65.8812 80.7962 64.8027 80.7962 63.7407 80.6433C63.8825 81.6967 63.6394 82.7659 63.0562 83.6545C62.473 84.5431 61.5888 85.1915 60.5659 85.4805C60.2879 85.5528 59.9654 85.6195 59.8264 85.8697C59.7803 86.0109 59.7629 86.1599 59.7754 86.3079C59.7878 86.4559 59.8297 86.5999 59.8987 86.7315C60.0207 87.1825 60.0505 87.6535 59.9866 88.1164C59.9226 88.5792 59.7661 89.0245 59.5264 89.4255C59.2867 89.8266 58.9687 90.1753 58.5913 90.4509C58.214 90.7264 57.785 90.9231 57.33 91.0294C57.6085 91.3049 57.821 91.6399 57.9516 92.0093C58.0823 92.3787 58.1276 92.7728 58.0843 93.1622C58.041 93.5516 57.9101 93.9261 57.7015 94.2577C57.4928 94.5893 57.2119 94.8694 56.8796 95.077C56.5905 95.2272 56.2124 95.4162 56.2402 95.7387C56.2572 95.8637 56.3093 95.9812 56.3903 96.0778C56.9887 96.8273 57.361 97.7319 57.4634 98.6855C57.4634 99.6418 56.7851 100.67 55.8288 100.659C56.0872 100.874 56.299 101.139 56.451 101.438C56.603 101.737 56.6922 102.064 56.7128 102.4C56.7128 103.072 55.9789 103.717 55.3673 103.439C55.106 103.323 51.3141 102.361 51.1584 102.122C49.1401 99.0469 52.0591 95.9333 52.4706 92.2804C52.9584 88.6183 54.2908 85.1199 56.3626 82.0611C57.1767 80.7499 58.1621 79.5532 59.2927 78.5027C60.6463 77.3769 62.1237 76.4088 63.6962 75.617C65.7033 74.505 67.7717 73.393 70.029 73.0038C74.2324 72.2532 78.4691 73.9935 82.261 75.9951C83.7257 76.705 85.0873 77.6103 86.3087 78.6862C87.6738 80.0765 88.7825 81.6971 89.5835 83.4733C90.8234 85.9976 91.8075 88.6997 91.941 91.5075" fill="#263238"/>
<path d="M93.5757 90.1841C93.4945 89.88 93.365 89.5909 93.192 89.3279C93.0419 89.061 92.8306 88.7719 92.636 88.3549C92.4133 87.9008 92.2919 87.4038 92.2802 86.8982C92.2734 86.2618 92.318 85.6259 92.4136 84.9967C92.5385 84.2395 92.5591 83.4687 92.4748 82.7059C92.3563 81.8268 92.0551 80.9821 91.5907 80.2262C91.339 79.8148 91.0425 79.4326 90.7067 79.0864C90.3416 78.7358 89.9514 78.4125 89.5391 78.1189C89.1112 77.8257 88.7354 77.463 88.4271 77.0459C88.1453 76.5814 87.9248 76.0824 87.771 75.5613C86.9595 73.2308 85.3375 71.2694 83.2007 70.0347C82.6251 69.7048 82.0155 69.4383 81.3826 69.2396C80.7303 69.0441 80.0559 68.932 79.3754 68.906C79.0273 68.8866 78.6783 68.8866 78.3301 68.906C77.9854 68.9449 77.6407 69.0005 77.3015 69.0395C76.616 69.1491 75.915 69.1131 75.2443 68.9338C74.5605 68.7615 73.8988 68.4779 73.1927 68.2611C72.488 68.0375 71.7666 67.8702 71.0354 67.7607C70.2878 67.6555 69.533 67.609 68.7781 67.6217C68.01 67.6446 67.2463 67.7452 66.4985 67.9219C64.9487 68.2663 63.5464 69.089 62.4897 70.2738L62.1839 70.6352L62.3118 70.5963C60.0927 70.0496 57.7486 70.3729 55.7604 71.4999C53.7722 72.6268 52.2907 74.472 51.6199 76.6567L51.6866 76.5844C50.7339 76.9517 49.8054 77.3788 48.9066 77.8632C48.0309 78.3366 47.2489 78.9659 46.5992 79.7202C45.9995 80.4707 45.6151 81.3702 45.4872 82.3223C45.3392 83.2471 45.5544 84.1934 46.0877 84.9633V84.8354C44.9993 85.8524 44.2994 87.2168 44.1083 88.6941C43.902 90.0223 44.1117 91.3818 44.7088 92.5861C44.8453 92.8613 45.0033 93.1253 45.1814 93.3756C45.3577 93.6054 45.521 93.8449 45.6707 94.0928C45.8107 94.3257 45.8927 94.5889 45.9098 94.8601C45.9097 95.1284 45.8873 95.3962 45.8431 95.6607C45.7072 96.6296 45.6829 97.6109 45.7708 98.5853C45.8376 99.3735 46.0546 100.142 46.4102 100.848C46.6761 101.365 47.0564 101.813 47.5222 102.16C47.9058 102.444 48.2505 102.561 48.4396 102.716C48.5377 102.787 48.6272 102.869 48.7065 102.961C48.643 102.855 48.5577 102.764 48.4563 102.694C48.2728 102.527 47.9003 102.399 47.5555 102.11C47.0893 101.768 46.7087 101.323 46.4435 100.809C46.1043 100.112 45.8987 99.358 45.8375 98.5853C45.7577 97.6193 45.7894 96.6473 45.932 95.6885C45.9794 95.4168 46.0036 95.1415 46.0043 94.8657C45.9906 94.5714 45.9047 94.2849 45.7541 94.0317C45.6095 93.7759 45.4261 93.5424 45.2593 93.3033C45.089 93.0569 44.9367 92.7986 44.8033 92.5305C44.2475 91.361 44.0594 90.0505 44.264 88.7719C44.4559 87.3397 45.14 86.0188 46.1989 85.0356L46.2656 84.9744L46.2156 84.9077C45.7145 84.1766 45.5153 83.2802 45.6596 82.4057C45.7978 81.4883 46.1821 80.6256 46.7716 79.9093C47.3993 79.1807 48.1525 78.5706 48.9956 78.1078C49.8966 77.631 50.8248 77.2077 51.7756 76.8401H51.8256V76.7845C52.4818 74.6602 53.9249 72.8668 55.8597 71.7713C57.7944 70.6758 60.0747 70.3608 62.2339 70.8909H62.3062L62.3618 70.8242L62.6565 70.4739C63.6838 69.3261 65.0449 68.529 66.5485 68.1943C67.2784 68.0244 68.0234 67.9276 68.7725 67.9052C69.5163 67.8876 70.2602 67.9323 70.9965 68.0387C71.717 68.1418 72.4275 68.3055 73.1204 68.5279C73.8099 68.7392 74.4771 69.0228 75.1832 69.2007C75.5325 69.2923 75.8901 69.3482 76.2507 69.3675C76.6076 69.3783 76.9648 69.3579 77.3182 69.3063C77.6685 69.2619 78.0077 69.2063 78.3468 69.1729C78.686 69.1395 79.0251 69.1284 79.3587 69.1451C80.0221 69.1701 80.6796 69.2785 81.3159 69.4676C81.9353 69.6596 82.5319 69.9187 83.0951 70.2404C85.1934 71.4489 86.7906 73.3676 87.5987 75.6503C87.7591 76.1849 87.9871 76.6968 88.277 77.1737C88.6013 77.6051 88.9938 77.9807 89.439 78.2857C89.849 78.5696 90.2357 78.8856 90.5955 79.2309C90.9259 79.5689 91.2186 79.9417 91.4684 80.3429C91.9256 81.0796 92.2247 81.9032 92.3469 82.7615C92.4351 83.5123 92.4221 84.2716 92.308 85.0189C92.2114 85.6554 92.1724 86.2992 92.1912 86.9427C92.2097 87.4595 92.3406 87.9661 92.5749 88.4272C92.7806 88.822 93.003 89.1277 93.1309 89.3891C93.2523 89.5833 93.3601 89.7858 93.4533 89.9951C93.5479 90.1119 93.5701 90.1841 93.5757 90.1841Z" fill="#455A64"/>
<path d="M65.9814 69.2343C65.9814 69.2343 66.1871 69.1287 66.5707 68.9674C67.1127 68.7376 67.69 68.6022 68.2776 68.5671C69.1433 68.5049 70.0097 68.6777 70.7852 69.0675C71.7463 69.5505 72.5262 70.3304 73.0092 71.2915C73.1544 71.5748 73.2681 71.8731 73.3484 72.1811C73.3908 72.3157 73.4039 72.4578 73.3866 72.5979C73.3694 72.7379 73.3222 72.8726 73.2483 72.9929L73.0481 73.2431L73.3595 73.1708C74.1724 72.9933 75.0225 73.141 75.728 73.5822C76.2884 73.9325 76.7196 74.4555 76.9568 75.0723C77.1185 75.4809 77.1978 75.9173 77.1903 76.3567C77.1792 76.5158 77.1792 76.6756 77.1903 76.8348C77.2086 76.7979 77.2217 76.7586 77.2292 76.7181C77.2594 76.6015 77.278 76.4824 77.2848 76.3622C77.3247 75.9084 77.2659 75.4512 77.1125 75.0223C76.8789 74.363 76.4355 73.7986 75.8504 73.4154C75.4809 73.1757 75.0676 73.0115 74.6344 72.9323C74.2011 72.8531 73.7565 72.8604 73.3261 72.9539L73.4429 73.1319C73.5393 72.986 73.6023 72.8207 73.6273 72.6477C73.6523 72.4746 73.6387 72.2982 73.5874 72.1311C73.507 71.8047 73.3875 71.4892 73.2316 71.1914C72.7302 70.1991 71.9233 69.3941 70.9298 68.8951C70.1147 68.5004 69.207 68.337 68.3054 68.4225C67.7055 68.4736 67.1207 68.6377 66.5818 68.9063C66.435 68.977 66.2937 69.0588 66.1593 69.1509C66.0203 69.1954 65.9758 69.2287 65.9814 69.2343Z" fill="#455A64"/>
<path d="M53.0321 77.4238C53.0321 77.4238 53.1044 77.5406 53.2879 77.7129C53.5419 77.9589 53.8215 78.177 54.1219 78.3635C54.5791 78.6576 55.0954 78.8474 55.6342 78.9195C56.3179 79.0061 57.0094 78.8357 57.5746 78.4413L57.4078 78.4079L57.6191 78.736L57.8637 79.0529C58.3237 79.5728 58.891 79.9867 59.5265 80.266C60.1619 80.5453 60.8504 80.6835 61.5445 80.6709C61.9625 80.664 62.3769 80.5927 62.7732 80.4596C62.9207 80.4193 63.06 80.3534 63.1847 80.265C62.641 80.4156 62.0807 80.4978 61.5167 80.5096C60.9194 80.4963 60.3296 80.3738 59.7764 80.1482C59.0975 79.8778 58.4932 79.4488 58.0139 78.8972C57.936 78.7971 57.8526 78.7026 57.7803 78.6025L57.5802 78.2912L57.5079 78.1855L57.4134 78.2578C56.8942 78.6228 56.2593 78.785 55.6286 78.7137C55.1157 78.6616 54.6195 78.5025 54.1719 78.2467C53.438 77.7908 53.0599 77.3905 53.0321 77.4238Z" fill="#455A64"/>
<path d="M48.5897 84.3516C48.5835 84.3977 48.5835 84.4444 48.5897 84.4906C48.6204 84.6261 48.673 84.7556 48.7453 84.8742C49.0178 85.3105 49.4446 85.6281 49.9407 85.7638C50.6789 85.9362 51.4512 85.8918 52.1647 85.6359C52.5595 85.5192 52.9765 85.3968 53.4046 85.2245C53.8702 85.0564 54.2632 84.7323 54.5166 84.3071L54.5722 84.1903L54.3887 84.2348C55.0495 84.8423 55.7996 85.3449 56.6127 85.7249C57.2853 86.033 58.0302 86.1485 58.7645 86.0585C59.259 85.9942 59.7284 85.8026 60.1267 85.5025C60.2357 85.4241 60.3347 85.3326 60.4213 85.2301C60.4825 85.1578 60.5103 85.1188 60.5047 85.1188C60.4992 85.1188 60.3602 85.2412 60.0766 85.4246C59.6767 85.6802 59.2207 85.8347 58.7478 85.875C58.0452 85.9385 57.3384 85.8118 56.7017 85.5081C55.9193 85.1225 55.1965 84.6263 54.5555 84.0346L54.4388 83.9346L54.3721 84.0791L54.3276 84.1848C54.0963 84.5603 53.7429 84.8449 53.3268 84.991C52.932 85.1505 52.5293 85.2897 52.1203 85.408C51.4479 85.662 50.7177 85.7217 50.013 85.5803C49.5444 85.4662 49.131 85.1906 48.8454 84.8019C48.7505 84.6575 48.665 84.5071 48.5897 84.3516Z" fill="#455A64"/>
<path d="M41.7842 56.4349C41.7842 56.4349 41.9177 56.4349 42.1456 56.5183C42.4757 56.631 42.7643 56.8402 42.9741 57.1188C43.3072 57.5475 43.4838 58.0772 43.4745 58.62C43.4509 59.3294 43.3177 60.0308 43.0797 60.6995L43.0408 60.8218H43.152C44.1049 60.8465 45.0239 61.1802 45.7708 61.7725C46.1923 62.1008 46.5311 62.5232 46.7599 63.006C46.9888 63.4888 47.1013 64.0184 47.0885 64.5525C47.0859 65.0382 46.9712 65.5167 46.7532 65.9507C46.5352 66.3847 46.2199 66.7625 45.8319 67.0545L45.565 67.2436H45.8931C46.4414 67.2746 46.9775 67.4179 47.4682 67.6646C47.9588 67.9114 48.3936 68.2563 48.7454 68.6781C49.3007 69.3595 49.6032 70.212 49.6016 71.0911C49.6038 71.665 49.4864 72.2331 49.2569 72.7591C49.0901 73.1316 48.9622 73.3151 48.9733 73.3151C48.9844 73.3151 49.0178 73.2762 49.079 73.1928C49.1713 73.0643 49.2531 72.9286 49.3236 72.7869C49.6626 72.1093 49.8024 71.3493 49.7266 70.5954C49.6508 69.8415 49.3626 69.1246 48.8955 68.5279C48.5306 68.089 48.0791 67.7302 47.5692 67.4738C47.0593 67.2174 46.5019 67.069 45.932 67.0379L45.9876 67.238C46.4075 66.9285 46.749 66.5248 46.9846 66.0594C47.2202 65.594 47.3434 65.0798 47.3442 64.5581C47.3652 63.98 47.2389 63.406 46.9773 62.8901C46.7222 62.3938 46.3661 61.9563 45.932 61.6057C45.1393 60.9813 44.1611 60.6389 43.152 60.6327L43.2465 60.7551C43.4793 60.0649 43.6031 59.3427 43.6135 58.6145C43.6147 58.0433 43.4182 57.4893 43.0575 57.0465C42.826 56.7622 42.5109 56.5579 42.1568 56.4627C42.0639 56.4397 41.9688 56.4266 41.8732 56.4238C41.8176 56.4238 41.7842 56.4294 41.7842 56.4349Z" fill="#455A64"/>
<path d="M27.1726 72.392C27.2095 72.4252 27.2506 72.4532 27.2949 72.4754C27.4171 72.5475 27.5433 72.6125 27.673 72.67C28.1585 72.889 28.6738 73.0351 29.202 73.1037C30.0164 73.2126 30.8443 73.1578 31.6373 72.9425C32.6565 72.6694 33.5839 72.128 34.3227 71.3746H34.1448C34.4772 72.021 34.9487 72.5857 35.5256 73.028C36.1025 73.4702 36.7702 73.779 37.4808 73.9321C38.2487 74.0792 39.0435 73.9806 39.7522 73.6502C40.4608 73.3198 41.0473 72.7745 41.4284 72.0918H41.2283C41.3891 72.6116 41.6845 73.0796 42.0845 73.4484C42.4437 73.7773 42.8576 74.0408 43.3077 74.2268C44.0512 74.514 44.847 74.641 45.6429 74.5993C46.1538 74.5776 46.6628 74.5218 47.1663 74.4326C47.355 74.4117 47.5412 74.3726 47.7223 74.3158C47.5359 74.3166 47.3499 74.3334 47.1663 74.3658C46.8161 74.3992 46.299 74.4604 45.6485 74.4659C44.876 74.488 44.1074 74.3498 43.3911 74.06C42.9386 73.8838 42.53 73.6109 42.1939 73.2604C41.8577 72.9098 41.6022 72.4902 41.4451 72.0306L41.3673 71.7693L41.2449 72.014C40.8815 72.6492 40.3288 73.1552 39.664 73.4612C38.9991 73.7672 38.2553 73.858 37.5364 73.7209C36.8598 73.574 36.2238 73.2802 35.6733 72.8603C35.1227 72.4405 34.6712 71.9048 34.3505 71.2911L34.2783 71.1577L34.1726 71.2689C33.465 71.9986 32.5768 72.5281 31.5983 72.8035C30.8299 73.0263 30.0252 73.0962 29.2298 73.0092C28.5167 72.9092 27.823 72.7011 27.1726 72.392Z" fill="#455A64"/>
<path d="M34.6563 84.074C34.6563 84.074 34.6563 84.1352 34.7397 84.2186C34.8534 84.3347 35.0017 84.4108 35.1623 84.4354C35.7418 84.5141 36.3318 84.4492 36.8803 84.2464C37.7032 83.9588 38.4162 83.4225 38.9209 82.7118C39.5372 81.8298 39.7974 80.7474 39.6492 79.6816V79.6538L39.4769 79.7761C40.4098 80.2921 41.4831 80.4966 42.5404 80.3599C43.3946 80.2526 44.2127 79.9501 44.9312 79.4759C45.4115 79.1679 45.8458 78.7936 46.2211 78.3639C46.3673 78.2126 46.4926 78.0424 46.5937 77.8579C46.0679 78.4197 45.4717 78.9112 44.82 79.3202C44.1124 79.7583 43.317 80.0354 42.4904 80.132C41.4832 80.2548 40.4628 80.0605 39.5714 79.576L39.3657 79.4647L39.399 79.6983C39.5309 80.6145 39.3453 81.5482 38.8729 82.3443C38.4005 83.1404 37.6699 83.7508 36.8025 84.074C36.2729 84.284 35.7027 84.3714 35.1345 84.3297C34.9495 84.305 34.7796 84.2142 34.6563 84.074Z" fill="#455A64"/>
<path d="M58.5921 57.5971C58.8156 58.3693 58.891 59.1767 58.8145 59.9768C58.7216 60.94 58.3595 61.8575 57.7695 62.6244C57.1796 63.3914 56.3856 63.9768 55.4785 64.3136C54.9112 64.538 54.3092 64.6622 53.6994 64.6806H53.5548L53.5881 64.8196C53.798 65.6363 53.8489 66.4857 53.7383 67.3216C53.6475 67.9883 53.4602 68.6382 53.1823 69.2509C53.0818 69.4815 52.9647 69.7044 52.832 69.9181C52.7881 69.9957 52.7274 70.0625 52.6543 70.1136C52.5811 70.1646 52.4974 70.1985 52.4094 70.2128C52.3535 70.2167 52.2974 70.2088 52.2447 70.1897C52.192 70.1705 52.144 70.1405 52.1036 70.1016C52.0536 70.046 52.0425 69.9959 52.0369 70.0015C52.0314 70.0071 52.0369 70.0515 52.0703 70.1238C52.1097 70.1764 52.1609 70.2189 52.2199 70.2479C52.2788 70.2768 52.3438 70.2915 52.4094 70.2906C52.5131 70.285 52.6139 70.2542 52.703 70.201C52.7921 70.1477 52.8669 70.0735 52.921 69.9848C53.0723 69.7727 53.2044 69.5476 53.3157 69.3121C53.9963 67.897 54.1653 66.2897 53.7939 64.764L53.6827 64.903C54.3227 64.8916 54.9554 64.7654 55.5508 64.5305C56.582 64.1292 57.4664 63.4232 58.0862 62.5066C58.5809 61.7546 58.8791 60.8906 58.9535 59.9935C59.005 59.3941 58.9523 58.7902 58.7979 58.2087C58.7548 58.0521 58.7028 57.898 58.6422 57.7473C58.6255 57.6361 58.5977 57.5916 58.5921 57.5971Z" fill="#455A64"/>
<path d="M72.9648 110.623C73.1705 110.534 73.6653 111.935 75.1888 112.519C76.7122 113.102 78.1745 112.424 78.2523 112.613C78.3024 112.697 78.0132 113.002 77.3905 113.241C76.5716 113.539 75.6741 113.539 74.8552 113.241C74.073 112.952 73.4321 112.372 73.0648 111.624C72.8313 111.045 72.8702 110.645 72.9648 110.623Z" fill="#263238"/>
<g opacity="0.3">
<path d="M36.847 151.394C33.6166 154.113 31.8819 158.338 31.6373 162.547C31.3926 166.756 32.5324 170.96 34.2783 174.779L33.928 172.35C32.9565 165.229 33.9665 157.978 36.847 151.394Z" fill="black"/>
</g>
<path d="M91.6519 129.36L93.7758 129.577C101.115 132.056 100.531 131.69 109.299 140.569L124.2 156.86L103.667 174.151L91.3127 154.775L91.6519 129.36Z" fill="#DFB3C1"/>
<path d="M98.752 148.092C98.8299 148.092 98.5574 154.419 98.1404 162.203C97.7234 169.987 97.3176 176.303 97.2397 176.298C97.1619 176.292 97.4343 169.976 97.8513 162.186C98.2683 154.397 98.6964 148.092 98.752 148.092Z" fill="#263238"/>
<path d="M98.196 159.479C98.196 159.562 84.0458 159.873 66.5874 160.174C49.129 160.474 34.9788 160.657 34.9733 160.574C34.9677 160.491 49.1235 160.185 66.5819 159.885C84.0403 159.584 98.1627 159.384 98.196 159.479Z" fill="white"/>
<path d="M98.196 164.561C98.196 164.638 84.0458 164.95 66.5874 165.25C49.129 165.55 34.9788 165.734 34.9733 165.656C34.9677 165.578 49.1235 165.267 66.5819 164.961C84.0403 164.655 98.1627 164.477 98.196 164.561Z" fill="white"/>
<path d="M171.499 225.098C171.499 225.098 168.508 210.497 159.873 202.58L115.393 203.942L102.911 208.59C102.911 208.59 98.6242 215.101 97.4343 225.098" fill="#263238"/>
<path d="M153.957 96.3779C153.957 96.3779 160.273 122.065 152.912 135.259L145.968 137.344C145.968 137.344 138.962 132.896 131.145 131.256L129.082 113.625L153.957 96.3779Z" fill="#263238"/>
<path d="M110.039 87.9214C113.303 81.4773 116.672 74.7608 123.338 71.9808C129.282 69.5011 135.137 69.9737 141.264 71.9475C144.283 72.9205 147.341 75.2835 149.604 77.5075C152.678 80.5766 153.062 85.1914 153.774 89.4782C155.186 98.0684 151.889 108.26 148.709 110.467L112.235 118.462C107.409 113.976 104.023 111.562 104.24 104.979C104.362 100.509 108.015 91.9246 110.039 87.9214Z" fill="#263238"/>
<path d="M122.287 78.4583L143.971 78.0913C150.682 78.9364 153.14 88.0215 152.011 94.6935C150.76 102.105 148.937 111.101 146.79 116.344C142.476 126.908 133.752 126.313 133.752 126.313C133.752 126.313 133.691 126.474 132.863 129.716L131.15 137.044C126.313 145.267 117.578 142.02 109.466 124.634L117.445 84.1795C118.062 80.9881 120.247 78.2081 122.287 78.4583Z" fill="#FFBF9D"/>
<path d="M146.068 103.784C145.99 104.15 145.772 104.472 145.46 104.68C145.148 104.888 144.768 104.965 144.4 104.896C144.21 104.871 144.027 104.807 143.863 104.708C143.699 104.609 143.558 104.476 143.448 104.319C143.338 104.163 143.262 103.984 143.225 103.797C143.188 103.609 143.19 103.415 143.232 103.228C143.311 102.862 143.529 102.542 143.841 102.334C144.152 102.127 144.532 102.048 144.9 102.116C145.09 102.142 145.272 102.206 145.435 102.306C145.599 102.405 145.74 102.537 145.849 102.694C145.959 102.851 146.035 103.029 146.073 103.216C146.11 103.404 146.109 103.597 146.068 103.784Z" fill="#263238"/>
<path d="M148.514 100.765C148.297 100.904 147.402 99.8696 145.901 99.5193C144.4 99.169 143.121 99.6639 142.982 99.4359C142.921 99.3358 143.176 99.0467 143.743 98.8076C144.504 98.5067 145.34 98.4504 146.134 98.6464C146.922 98.828 147.631 99.2565 148.158 99.8696C148.536 100.331 148.62 100.704 148.514 100.765Z" fill="#263238"/>
<path d="M132.295 100.165C132.215 100.53 131.997 100.849 131.686 101.057C131.375 101.264 130.995 101.343 130.627 101.277C130.445 101.249 130.271 101.185 130.113 101.089C129.956 100.993 129.82 100.866 129.713 100.716C129.605 100.566 129.529 100.397 129.489 100.217C129.448 100.037 129.444 99.851 129.477 99.6697C129.558 99.3053 129.777 98.9865 130.088 98.7794C130.398 98.5723 130.777 98.4929 131.145 98.5577C131.326 98.586 131.501 98.6502 131.658 98.7467C131.814 98.8432 131.95 98.9699 132.057 99.1195C132.164 99.2691 132.241 99.4386 132.282 99.618C132.323 99.7975 132.327 99.9832 132.295 100.165Z" fill="#263238"/>
<path d="M133.78 96.8672C133.563 97.0118 132.668 95.9721 131.167 95.6218C129.666 95.2715 128.387 95.7664 128.248 95.544C128.187 95.4439 128.442 95.1548 129.01 94.9157C129.77 94.6155 130.605 94.5572 131.4 94.7489C132.187 94.9326 132.896 95.3608 133.424 95.9721C133.78 96.4391 133.858 96.8061 133.78 96.8672Z" fill="#263238"/>
<path d="M136.894 108.176C136.894 108.093 137.883 108.176 139.451 108.31C139.852 108.36 140.23 108.371 140.357 108.121C140.481 107.73 140.481 107.311 140.357 106.92C140.213 105.897 140.068 104.829 139.907 103.712C139.307 99.1524 138.967 95.4384 139.151 95.4161C139.334 95.3939 139.968 99.0746 140.574 103.628C140.713 104.74 140.847 105.819 140.975 106.842C141.106 107.365 141.051 107.918 140.819 108.404C140.732 108.528 140.617 108.63 140.484 108.703C140.351 108.775 140.203 108.816 140.052 108.821C139.824 108.829 139.596 108.809 139.373 108.76C137.833 108.482 136.877 108.265 136.894 108.176Z" fill="#263238"/>
<path d="M133.736 126.313C128.559 125.182 123.799 122.636 119.986 118.957C119.986 118.957 121.809 127.475 133.018 129.026L133.736 126.313Z" fill="#FF9A6C"/>
<path d="M131 110.311C131.298 110.027 131.663 109.821 132.061 109.712C132.459 109.603 132.878 109.595 133.28 109.689C133.852 109.78 134.39 110.023 134.837 110.392C135.284 110.762 135.624 111.245 135.821 111.79C135.935 112.281 135.861 112.797 135.615 113.236C135.454 113.453 135.565 113.353 135.337 113.475C134.559 113.972 133.671 114.271 132.751 114.348C132.262 114.355 131.782 114.214 131.373 113.944C130.965 113.675 130.647 113.288 130.461 112.836C130.311 112.406 130.282 111.943 130.377 111.498C130.472 111.053 130.688 110.643 131 110.311Z" fill="#FF9A6C"/>
<path d="M135.598 113.831C135.359 113.92 134.864 112.308 133.129 111.607C131.395 110.907 129.738 111.607 129.66 111.368C129.604 111.274 129.944 110.934 130.661 110.695C131.602 110.391 132.619 110.429 133.535 110.801C134.413 111.16 135.117 111.845 135.498 112.714C135.765 113.353 135.709 113.792 135.598 113.831Z" fill="#263238"/>
<path d="M128.826 90.7682C128.971 90.34 130.494 90.5068 132.34 90.2511C134.186 89.9953 135.62 89.4616 135.871 89.8341C135.982 90.012 135.732 90.4179 135.148 90.8349C134.367 91.3553 133.478 91.69 132.548 91.8134C131.618 91.9367 130.672 91.8455 129.782 91.5466C129.11 91.2964 128.776 90.9961 128.826 90.7682Z" fill="#263238"/>
<path d="M144.439 93.4482C144.822 93.1813 145.895 93.8207 147.285 94.1821C148.675 94.5435 149.915 94.588 150.099 95.0161C150.176 95.2162 149.904 95.5165 149.309 95.7111C148.506 95.944 147.654 95.944 146.852 95.7111C146.046 95.5035 145.317 95.0694 144.75 94.4601C144.344 93.9764 144.266 93.5816 144.439 93.4482Z" fill="#263238"/>
<path d="M143.994 76.8457C143.994 76.9291 143.994 77.0125 143.994 77.0959H143.949C143.96 77.0125 143.977 76.9291 143.994 76.8457Z" fill="#263238"/>
<path d="M153.841 86.6758C153.424 84.0722 152.506 81.5741 151.138 79.3199C148.72 75.6392 147.052 76.4732 144.717 76.9791L144.444 77.0125C144.444 76.9569 144.444 76.9069 144.472 76.8568V76.3953C139.46 73.7232 133.822 72.4444 128.148 72.6924C123.961 72.8814 118.14 75.528 115.199 78.5248C115.143 78.5804 115.082 78.636 115.032 78.6972C108.482 86.1809 98.196 100.776 99.9752 140.841L107.048 142.292C107.12 144.133 111.184 139.018 111.184 139.018C111.818 139.179 116.266 127.28 117.233 122.41C117.851 119.33 117.428 110.778 118.017 107.687C119.029 102.399 119.129 98.5075 121.092 93.8482C123.872 94.2652 128.376 93.4701 130.767 91.8633C133.641 89.9284 135.826 87.1539 137.956 84.424C137.027 87.4477 135.179 90.1066 132.668 92.0301C133.251 92.2937 133.888 92.4164 134.528 92.3884C135.167 92.3604 135.791 92.1824 136.349 91.8688C137.46 91.2322 138.426 90.3705 139.184 89.339C141.116 86.9166 142.581 84.1565 143.504 81.1992C142.727 85.5848 141.052 89.7624 138.584 93.4701C139.407 93.4701 140.163 93.8815 140.914 94.2096C141.664 94.5376 142.582 94.7656 143.288 94.3541C143.74 94.0336 144.092 93.5924 144.305 93.0809C146.056 89.6561 147.208 85.9574 147.713 82.1444C148.202 84.3811 148.468 86.6607 148.508 88.9498C148.546 91.249 147.937 93.5125 146.752 95.4828C146.882 95.7092 147.097 95.8748 147.349 95.9436C147.601 96.0123 147.87 95.9786 148.097 95.8498C148.545 95.5689 148.885 95.1461 149.064 94.6488C149.854 92.9085 150.049 90.9625 150.227 89.0888C150.783 91.3128 150.521 93.6369 150.538 95.9276C150.555 98.2183 150.899 100.654 152.412 102.377C153.488 99.6909 154.172 96.8632 154.441 93.9816C154.713 91.5797 154.263 89.0277 153.841 86.6758Z" fill="#263238"/>
<path d="M137.216 100.17C137.312 99.6429 137.368 99.1095 137.383 98.5741C137.385 97.949 137.295 97.327 137.116 96.7282C136.887 95.9358 136.51 95.1942 136.004 94.5431C135.384 93.7523 134.586 93.1197 133.674 92.6972C132.634 92.2091 131.482 92.0076 130.338 92.1134C129.721 92.1672 129.115 92.3153 128.542 92.5526C128.245 92.6701 127.957 92.8095 127.681 92.9696C127.401 93.1365 127.134 93.3223 126.88 93.5256C125.818 94.3871 125.059 95.5652 124.713 96.8882C124.367 98.2113 124.452 99.6103 124.956 100.881C125.076 101.184 125.217 101.478 125.379 101.76C125.548 102.034 125.734 102.298 125.935 102.549C126.318 103.037 126.776 103.461 127.291 103.806C128.521 104.65 130.005 105.044 131.492 104.919C132.978 104.794 134.376 104.16 135.448 103.122C135.9 102.689 136.284 102.191 136.588 101.643C136.835 101.168 137.047 100.676 137.222 100.17C137.222 100.17 137.222 100.203 137.222 100.275C137.222 100.348 137.172 100.448 137.138 100.576C137.093 100.737 137.035 100.895 136.966 101.048C136.889 101.266 136.792 101.476 136.677 101.677C136.385 102.238 136.01 102.751 135.565 103.2C134.481 104.278 133.054 104.944 131.532 105.083C130.009 105.222 128.486 104.826 127.225 103.962C126.694 103.607 126.223 103.169 125.829 102.666C125.625 102.411 125.439 102.141 125.273 101.86C125.106 101.571 124.959 101.27 124.834 100.959C124.317 99.6493 124.227 98.209 124.578 96.8449C124.931 95.4841 125.71 94.2721 126.802 93.3866C127.062 93.1804 127.337 92.9945 127.625 92.8306C127.91 92.6679 128.205 92.5248 128.509 92.4025C129.1 92.1604 129.724 92.0122 130.361 91.9633C131.538 91.8552 132.722 92.0645 133.791 92.5693C134.718 93.0123 135.528 93.6676 136.154 94.4819C136.665 95.1444 137.043 95.8997 137.266 96.7059C137.442 97.3183 137.525 97.9538 137.511 98.5908C137.511 98.8217 137.493 99.0523 137.455 99.2802C137.441 99.4472 137.413 99.6127 137.372 99.7751L137.294 100.081C137.227 100.136 137.216 100.17 137.216 100.17Z" fill="#455A64"/>
<path d="M153.535 104.434C153.631 103.909 153.687 103.378 153.701 102.844C153.704 102.217 153.614 101.593 153.435 100.993C153.205 100.201 152.828 99.4595 152.323 98.8077C151.7 98.02 150.902 97.3881 149.993 96.9618C148.951 96.4807 147.799 96.2886 146.657 96.4058C146.04 96.4577 145.434 96.6039 144.861 96.8395C144.566 96.9616 144.278 97.1008 143.999 97.2565C143.721 97.4253 143.454 97.611 143.199 97.8125C142.136 98.674 141.377 99.852 141.031 101.175C140.685 102.498 140.77 103.897 141.275 105.168C141.395 105.472 141.537 105.768 141.697 106.052C141.865 106.326 142.051 106.588 142.253 106.836C142.635 107.325 143.091 107.751 143.605 108.099C144.488 108.709 145.511 109.089 146.579 109.203C147.647 109.318 148.727 109.164 149.721 108.755C150.488 108.442 151.186 107.984 151.778 107.404C152.23 106.971 152.614 106.472 152.918 105.925C153.165 105.45 153.377 104.957 153.551 104.451C153.551 104.451 153.551 104.49 153.551 104.557L153.468 104.857C153.422 105.02 153.365 105.18 153.296 105.335C153.216 105.552 153.12 105.762 153.006 105.963C152.3 107.275 151.166 108.305 149.793 108.882C148.848 109.285 147.821 109.459 146.796 109.388C145.618 109.309 144.483 108.913 143.51 108.243C142.982 107.887 142.511 107.452 142.114 106.953C141.912 106.697 141.726 106.428 141.558 106.147C141.392 105.855 141.245 105.552 141.119 105.241C140.602 103.931 140.512 102.49 140.863 101.126C141.218 99.7661 141.997 98.5545 143.087 97.6679C143.348 97.4635 143.623 97.2777 143.91 97.1119C144.195 96.951 144.49 96.8098 144.794 96.6894C145.384 96.4454 146.009 96.2953 146.646 96.2446C147.823 96.1383 149.008 96.3494 150.076 96.8562C151.003 97.2973 151.813 97.9506 152.439 98.7633C152.953 99.4241 153.331 100.18 153.551 100.987C153.728 101.598 153.81 102.231 153.796 102.867C153.797 103.098 153.778 103.328 153.74 103.556C153.726 103.725 153.698 103.892 153.657 104.056C153.624 104.179 153.601 104.279 153.585 104.357L153.535 104.434Z" fill="#455A64"/>
<path d="M141.736 99.3358C141.535 99.2252 141.34 99.1027 141.153 98.9688C140.678 98.686 140.153 98.4972 139.607 98.4128C139.063 98.3423 138.51 98.3744 137.978 98.5073C137.76 98.586 137.537 98.6509 137.311 98.7019C137.494 98.5489 137.708 98.437 137.939 98.3739C138.486 98.1942 139.067 98.1428 139.636 98.2238C140.206 98.3048 140.75 98.516 141.225 98.8409C141.431 98.9651 141.605 99.1343 141.736 99.3358Z" fill="#455A64"/>
<path d="M114.014 129.527L93.5757 136.494L101.816 169.559C101.816 169.559 95.2993 198.054 95.1436 205.104C94.9879 212.154 101.365 212.76 101.365 212.76C101.365 212.76 126.763 215.54 144.477 212.476C152.979 210.992 158.15 209.78 161.235 208.924C162.447 208.588 163.481 207.794 164.117 206.709C164.753 205.625 164.942 204.335 164.644 203.113C164.527 202.635 164.399 202.135 164.254 201.64C163.393 198.721 163.393 182.041 163.393 182.041L164.594 137.672L139.663 130.277C131 133.469 119.635 134.976 114.014 129.527Z" fill="#C76383"/>
<g opacity="0.3">
<path d="M158.183 193.645C156.515 193.617 154.964 194.418 153.479 195.174C145.317 199.338 136.799 202.958 127.903 205.037C119.007 207.117 109.622 207.717 100.659 205.855L96.667 207.645C100.603 210.981 105.947 212.148 111.084 212.743C119.82 213.759 128.655 213.535 137.327 212.076C141.775 211.331 146.529 210.002 149.103 206.327C150.215 204.709 150.905 202.68 152.523 201.557C154.141 200.434 156.109 200.506 157.96 200.1C159.812 199.694 161.814 198.387 161.725 196.497C161.636 194.835 159.851 193.667 158.183 193.645Z" fill="black"/>
</g>
<g opacity="0.3">
<path d="M103.122 166.946C104.833 172.581 106.875 178.109 109.238 183.503L105.102 182.736L103.122 166.946Z" fill="black"/>
</g>
<path d="M93.5757 136.494C91.3334 137.095 89.2848 138.266 87.6287 139.893C85.9726 141.52 84.7652 143.548 84.1237 145.779C81.8997 153.518 82.7503 168.992 82.7503 168.992C82.7503 168.992 79.9703 197.014 88.0824 203.214C96.1944 209.413 107.515 212.844 125.223 211.465C142.932 210.086 151.533 201.318 151.533 201.318L149.126 183.609L128.665 187.045L105.102 182.736L102.722 163.788" fill="#C76383"/>
<path d="M102.722 163.798L102.772 164.115C102.8 164.338 102.844 164.671 102.9 165.066C103.011 165.911 103.178 167.151 103.389 168.764C103.8 171.999 104.412 176.737 105.179 182.736L105.113 182.669L128.676 186.934H128.637L149.098 183.481H149.231V183.614C149.999 189.241 150.81 195.174 151.65 201.323V201.395L151.6 201.44C149.863 203.02 147.949 204.393 145.895 205.532C143.783 206.73 141.578 207.757 139.301 208.601C134.558 210.305 129.597 211.331 124.567 211.648C117.467 212.159 110.417 211.948 103.806 210.48C100.552 209.779 97.3919 208.695 94.3929 207.25C93.6701 206.877 92.9307 206.533 92.2412 206.11L91.1904 205.532L90.184 204.876C89.5001 204.459 88.8719 203.964 88.2269 203.508C87.9089 203.267 87.6045 203.009 87.3151 202.735C87.0371 202.446 86.7591 202.146 86.5311 201.84C85.6169 200.578 84.9024 199.183 84.4127 197.703C83.9253 196.273 83.5425 194.808 83.2674 193.322C82.9783 191.865 82.7781 190.409 82.6224 188.969C82.4667 187.529 82.3611 186.111 82.2944 184.704C82.0557 179.467 82.1708 174.219 82.6391 168.997C82.3776 163.835 82.4352 158.662 82.8115 153.507C82.9677 151.388 83.2611 149.282 83.6899 147.202C84.0334 145.439 84.6967 143.755 85.6471 142.231C86.4164 141.021 87.3801 139.947 88.4993 139.051C89.3165 138.398 90.2042 137.838 91.1459 137.383C91.9166 136.991 92.7327 136.696 93.5756 136.504C93.5756 136.504 93.3643 136.56 92.9529 136.699C92.3445 136.907 91.7501 137.154 91.1737 137.438C90.2407 137.905 89.3624 138.474 88.5549 139.134C87.4629 140.033 86.524 141.104 85.7749 142.303C84.842 143.821 84.1938 145.496 83.8623 147.246C83.4409 149.32 83.1549 151.418 83.0061 153.529C82.6546 158.678 82.6119 163.843 82.8782 168.997C82.4274 174.209 82.3234 179.445 82.5668 184.671C82.6391 186.072 82.7447 187.49 82.906 188.919C83.0672 190.347 83.2618 191.799 83.5509 193.25C83.8171 194.722 84.1887 196.173 84.6629 197.592C85.1479 199.039 85.849 200.403 86.7424 201.64C86.987 201.934 87.2372 202.229 87.5041 202.502C87.7852 202.77 88.0823 203.02 88.3937 203.252C89.0331 203.708 89.6558 204.192 90.3341 204.609L91.3349 205.259L92.3747 205.854C93.0641 206.271 93.798 206.616 94.5153 206.966C97.495 208.4 100.634 209.475 103.867 210.169C110.439 211.626 117.461 211.837 124.545 211.325C129.548 211.015 134.482 210 139.201 208.312C141.464 207.474 143.657 206.455 145.756 205.265C147.799 204.136 149.702 202.772 151.427 201.201L151.389 201.317C150.555 195.168 149.754 189.23 148.992 183.603L149.142 183.714L128.676 187.184H128.637L105.085 182.853H105.024V182.736C104.284 176.731 103.706 171.994 103.306 168.747C103.111 167.134 102.966 165.895 102.861 165.049C102.816 164.632 102.777 164.316 102.755 164.099C102.733 163.882 102.722 163.798 102.722 163.798Z" fill="#263238"/>
<path d="M94.9379 187.145C94.9379 187.145 95.0268 187.012 95.2325 186.806C95.5225 186.522 95.8268 186.253 96.1444 186C97.1935 185.16 98.3442 184.456 99.5693 183.904C100.796 183.347 102.098 182.972 103.434 182.792C103.837 182.738 104.244 182.71 104.651 182.708C104.802 182.699 104.954 182.71 105.102 182.742C105.102 182.792 104.468 182.819 103.467 182.992C102.164 183.226 100.894 183.618 99.6861 184.159C98.4818 184.71 97.3362 185.38 96.2667 186.161C95.4438 186.762 94.9657 187.184 94.9379 187.145Z" fill="#263238"/>
<path d="M151.122 198.332C151.122 198.332 153.062 199.194 157.638 196.903C162.214 194.612 162.87 194.195 162.87 194.195C162.87 194.195 161.485 195.763 162.147 197.203C162.147 197.203 162.447 197.759 165.155 196.842C167.863 195.925 168.491 195.402 168.769 195.041C169.047 194.679 170.515 194.017 168.769 191.61C168.769 191.61 169.909 190.287 168.213 188.83C168.241 188.383 168.169 187.935 168.003 187.518C167.836 187.102 167.58 186.728 167.251 186.423C167.251 186.423 167.974 185.038 166.773 184.26C165.572 183.481 163.793 183.42 163.587 183.298C163.381 183.175 156.17 186.006 156.17 186.006L149.782 188.535L151.122 198.332Z" fill="#FFBF9D"/>
<path d="M78.3746 166.645C78.3746 166.645 75.3611 164.371 76.0227 162.875L76.6844 161.38C76.6844 161.38 74.8829 158.972 75.539 157.632C76.129 156.643 76.9278 155.795 77.8798 155.147C77.8798 155.147 77.0291 153.379 77.6407 151.917C78.1785 150.648 78.8895 149.46 79.7535 148.386L85.1133 142.771C85.5347 143.123 85.8401 143.594 85.9898 144.123C86.1396 144.651 86.1267 145.213 85.9529 145.734C85.693 146.688 85.2939 147.598 84.7686 148.436C84.1419 149.314 83.4346 150.131 82.6558 150.877C82.6558 150.877 94.8878 151.166 95.6217 152.545C96.3557 153.924 94.7822 155.242 94.5097 155.47C94.2373 155.698 83.8123 156.582 83.8123 156.582C83.8123 156.582 95.9331 158.055 96.7727 159.634C97.6122 161.213 96.4502 162.108 95.7441 162.414C94.808 162.601 93.8608 162.727 92.9085 162.792C92.9085 162.792 95.4661 166.006 91.663 166.478C90.4329 166.604 89.1956 166.643 87.9601 166.595L82.4001 166.389V166.918C82.4001 166.918 87.7766 168.169 87.6932 169.247C87.6098 170.326 87.0315 171.115 84.1237 170.843C82.7781 170.721 80.9545 170.632 79.8758 170.204C79.4296 170.029 79.047 169.722 78.7789 169.325C78.5108 168.928 78.3698 168.459 78.3746 167.98V166.645Z" fill="#FFBF9D"/>
<path d="M81.7217 161.958C81.6884 162.114 84.3628 162.77 87.7488 162.97C91.1348 163.17 93.8648 162.842 93.8648 162.681C93.8648 162.52 91.1348 162.57 87.7933 162.37C84.4517 162.17 81.7551 161.786 81.7217 161.958Z" fill="#FF9A6C"/>
<path d="M79.7146 156.415C79.7146 156.493 79.9759 156.66 80.4763 156.76C81.1169 156.87 81.7685 156.902 82.4168 156.854C83.9068 156.726 85.03 156.815 85.0911 156.688C85.1523 156.56 84.8298 156.443 84.3294 156.343C83.6888 156.233 83.0372 156.201 82.389 156.248C80.8989 156.376 79.7758 156.287 79.7146 156.415Z" fill="#FF9A6C"/>
<path d="M80.0649 150.427C79.9926 150.577 80.6654 151.033 81.6328 151.222C82.6002 151.411 83.3898 151.255 83.3842 151.094C83.3786 150.933 82.6336 150.811 81.7496 150.633C80.8655 150.455 80.1316 150.271 80.0649 150.427Z" fill="#FF9A6C"/>
<path d="M133.863 144.628C133.863 144.628 132.429 139.107 131.767 135.732C131.618 134.827 131.647 133.902 131.851 133.007C132.493 129.916 134.335 127.205 136.971 125.468L137.889 124.851L143.788 112.291C143.788 112.291 144.7 110.556 146.44 110.389C148.18 110.223 147.263 111.379 147.263 111.379L145.195 116.511L144.45 121.315L147.502 115.605L148.67 112.269C148.67 112.269 148.236 110.2 149.076 108.71C149.33 108.275 149.69 107.91 150.123 107.65C150.555 107.389 151.046 107.242 151.55 107.22C151.745 108.731 151.861 110.251 151.9 111.774C151.817 112.686 151.072 117.234 150.577 118.062C150.082 118.891 146.768 125.39 146.768 125.39C146.768 125.39 142.048 135.276 141.803 135.954C141.558 136.633 143.766 141.42 143.766 141.42L133.863 144.628Z" fill="#FFBF9D"/>
<path d="M133.863 144.628L134.036 144.567L134.531 144.394L136.454 143.749L143.721 141.347L143.671 141.464C143.232 140.513 142.782 139.49 142.348 138.384C142.113 137.817 141.914 137.236 141.753 136.644C141.709 136.484 141.679 136.32 141.664 136.154C141.659 136.062 141.673 135.969 141.703 135.882L141.809 135.665L142.22 134.776L145.901 126.925C146.54 125.501 147.302 124.073 148.064 122.594L150.432 118.029C150.751 117.216 150.983 116.372 151.127 115.51C151.3 114.626 151.461 113.731 151.6 112.825C151.682 112.377 151.733 111.923 151.75 111.468C151.75 111.012 151.711 110.551 151.672 110.084C151.594 109.15 151.494 108.21 151.389 107.259L151.528 107.387C151.015 107.415 150.518 107.572 150.082 107.843C149.639 108.132 149.288 108.541 149.07 109.022C148.663 110.052 148.566 111.179 148.792 112.263V112.302V112.341L147.624 115.649L147.38 116.111L144.572 121.359L144.172 122.104L144.305 121.27C144.557 119.647 144.805 118.046 145.05 116.466C145.751 114.721 146.446 113.008 147.118 111.335C147.237 111.189 147.309 111.01 147.324 110.823C147.324 110.679 147.168 110.601 146.968 110.567C146.556 110.523 146.14 110.574 145.751 110.717C144.977 111.033 144.33 111.596 143.91 112.319L141.809 116.767L137.994 124.912V124.945C137.292 125.389 136.616 125.873 135.971 126.397C135.363 126.898 134.804 127.457 134.303 128.065C133.39 129.186 132.694 130.469 132.251 131.845C131.835 133.04 131.698 134.315 131.851 135.571C132.062 136.716 132.301 137.795 132.512 138.712C132.935 140.602 133.291 142.048 133.53 143.071C133.647 143.56 133.741 143.938 133.802 144.183L133.869 144.472C133.873 144.505 133.873 144.539 133.869 144.572C133.852 144.543 133.841 144.511 133.836 144.478L133.752 144.194C133.682 143.927 133.582 143.557 133.452 143.082C133.191 142.093 132.813 140.63 132.34 138.745C132.118 137.8 131.878 136.755 131.651 135.593C131.487 134.315 131.616 133.016 132.029 131.795C132.473 130.39 133.174 129.08 134.097 127.931C134.598 127.31 135.157 126.736 135.765 126.219C136.414 125.688 137.093 125.196 137.8 124.745L137.761 124.79C138.94 122.254 140.213 119.519 141.564 116.605L143.671 112.107C144.118 111.33 144.813 110.725 145.645 110.389C146.078 110.228 146.543 110.171 147.002 110.223C147.132 110.24 147.257 110.286 147.369 110.356C147.432 110.396 147.485 110.451 147.523 110.516C147.56 110.581 147.582 110.654 147.585 110.729C147.583 110.987 147.491 111.237 147.324 111.435V111.401C146.646 113.073 145.956 114.784 145.256 116.533V116.5C145.011 118.079 144.763 119.68 144.511 121.304L144.238 121.209C145.161 119.486 146.097 117.736 147.046 115.961L147.291 115.499C147.691 114.387 148.086 113.236 148.458 112.191V112.263C148.219 111.119 148.323 109.929 148.759 108.844C148.999 108.315 149.384 107.866 149.871 107.548C150.351 107.243 150.903 107.071 151.472 107.048H151.6V107.176C151.711 108.126 151.811 109.072 151.883 110.011C151.922 110.478 151.956 110.945 151.961 111.418C151.944 111.888 151.892 112.357 151.806 112.819C151.667 113.731 151.505 114.626 151.327 115.51C151.238 115.955 151.138 116.394 151.033 116.828C150.935 117.273 150.787 117.706 150.593 118.118L148.225 122.666C147.458 124.139 146.696 125.557 146.051 126.98C144.717 129.794 143.477 132.418 142.348 134.803L141.931 135.687L141.825 135.904C141.812 135.968 141.812 136.035 141.825 136.099C141.838 136.249 141.864 136.398 141.903 136.544C142.053 137.129 142.239 137.705 142.459 138.267C142.887 139.379 143.332 140.397 143.76 141.342L143.794 141.425H143.71L136.432 143.816L134.514 144.422L134.025 144.567C133.973 144.593 133.919 144.613 133.863 144.628Z" fill="#FF9A6C"/>
<path d="M144.383 120.108C144.492 120.358 144.538 120.631 144.516 120.903C144.521 121.558 144.393 122.208 144.142 122.814C143.891 123.419 143.521 123.968 143.054 124.428C142.693 124.773 142.415 124.917 142.398 124.89C143.031 124.265 143.532 123.52 143.873 122.699C144.214 121.878 144.387 120.997 144.383 120.108Z" fill="#FF9A6C"/>
<path d="M137.85 135.543C138.471 135.486 139.098 135.525 139.707 135.659C140.331 135.694 140.945 135.829 141.525 136.06C140.904 136.116 140.277 136.077 139.668 135.943C139.045 135.905 138.431 135.77 137.85 135.543Z" fill="#FF9A6C"/>
<g opacity="0.3">
<path d="M135.848 184.526C136.482 187.418 137.272 190.248 139.062 192.599C140.826 195.011 143.403 196.704 146.318 197.364C147.77 197.67 149.274 197.611 150.698 197.193C152.121 196.774 153.419 196.01 154.474 194.968C147.68 194.54 139.835 190.07 135.848 184.526Z" fill="black"/>
</g>
<path d="M153.829 152.062L150.638 156.321L144.344 141.258L129.732 146.262L130.772 150.521L128.882 158.911C128.369 161.186 128.422 163.551 129.037 165.8C131.234 173.757 137.199 192.65 145.006 195.38C154.941 198.86 160.902 190.086 164.377 181.48C167.852 172.873 174.941 140.753 164.594 137.689" fill="#C76383"/>
<path d="M164.594 137.7L165.005 137.828C165.397 137.966 165.771 138.153 166.117 138.384C167.405 139.366 168.352 140.727 168.825 142.276C170.265 146.235 170.404 152.418 169.514 159.796C169.015 163.831 168.299 167.836 167.368 171.794C166.345 176.048 165.144 180.635 162.92 185.049C161.82 187.343 160.436 189.49 158.8 191.438C157.942 192.432 156.974 193.325 155.914 194.101C154.826 194.896 153.609 195.497 152.317 195.88C149.628 196.604 146.77 196.372 144.233 195.224C142.973 194.569 141.843 193.691 140.897 192.633C139.94 191.582 139.075 190.451 138.311 189.253C136.381 186.127 134.745 182.829 133.424 179.4C132.079 176.064 130.95 172.728 129.949 169.442C129.708 168.619 129.469 167.802 129.232 166.99C128.985 166.184 128.779 165.365 128.615 164.538C128.328 162.905 128.328 161.234 128.615 159.601C129.293 156.432 130.005 153.413 130.655 150.494V150.555C130.299 149.093 129.955 147.675 129.616 146.29V146.185L129.716 146.146L144.344 141.142L144.427 141.108L144.466 141.192L150.71 156.276H150.627C151.689 154.869 152.495 153.813 153.034 153.101L153.646 152.306C153.785 152.128 153.857 152.045 153.857 152.045L153.668 152.323C153.529 152.506 153.335 152.779 153.079 153.129L150.705 156.337L150.655 156.404L150.616 156.326C149.215 152.99 147.068 147.892 144.283 141.281L144.405 141.336L129.799 146.34L129.877 146.201C130.214 147.588 130.563 149.007 130.922 150.46V150.516C130.277 153.429 129.566 156.471 128.904 159.612C128.623 161.214 128.623 162.853 128.904 164.455C129.063 165.274 129.267 166.083 129.516 166.879L130.233 169.325C131.234 172.6 132.362 175.931 133.708 179.261C135.03 182.671 136.666 185.951 138.595 189.058C139.348 190.241 140.202 191.358 141.147 192.394C142.049 193.437 143.132 194.309 144.344 194.968C146.166 195.834 148.189 196.188 150.197 195.992C152.205 195.796 154.122 195.058 155.742 193.856C156.785 193.096 157.737 192.217 158.578 191.237C160.206 189.325 161.589 187.216 162.692 184.96C164.916 180.579 166.111 176.02 167.14 171.777C168.076 167.828 168.801 163.833 169.314 159.807C170.231 152.44 170.12 146.285 168.725 142.343C168.271 140.804 167.35 139.444 166.089 138.451C165.627 138.133 165.124 137.881 164.594 137.7Z" fill="#C76383"/>
<g opacity="0.3">
<path d="M160.813 166.996C159.478 164.816 157.416 163.209 155.486 161.536C153.557 159.862 151.778 158.272 151.016 155.854L150.666 156.182C151.677 159.526 153.337 162.638 155.553 165.339C157.777 168.086 160.296 170.799 161.174 174.235C162.592 172.122 162.136 169.17 160.813 166.996Z" fill="black"/>
</g>
<path d="M161.58 176.359C161.366 175.26 161.05 174.184 160.635 173.145C160.152 172.031 159.569 170.963 158.895 169.953C158.144 168.803 157.227 167.613 156.226 166.367C154.539 164.225 153.075 161.917 151.856 159.478C151.49 158.737 151.17 157.974 150.899 157.193C150.794 156.921 150.738 156.698 150.694 156.554C150.649 156.409 150.638 156.326 150.649 156.32C150.79 156.591 150.913 156.872 151.016 157.16C151.233 157.716 151.572 158.466 152.056 159.384C153.318 161.781 154.796 164.059 156.47 166.189C157.454 167.435 158.389 168.641 159.134 169.809C159.808 170.836 160.38 171.928 160.841 173.067C161.147 173.836 161.373 174.636 161.513 175.452C161.551 175.675 161.577 175.9 161.591 176.125C161.58 176.275 161.58 176.359 161.58 176.359Z" fill="#263238"/>
<g opacity="0.3">
<path d="M168.391 140.263C166.929 138.206 162.909 134.386 160.396 134.642L151.528 145.807C152.325 146.23 153.233 146.397 154.129 146.285C155.025 146.172 155.864 145.786 156.532 145.178C157.644 146.563 155.92 148.909 156.982 150.344C157.677 151.283 159.122 151.172 160.212 150.744C161.024 151.789 162.648 151.856 163.832 151.3C165.016 150.744 165.85 149.632 166.64 148.559C166.831 148.738 167.077 148.848 167.338 148.871C167.599 148.894 167.86 148.829 168.08 148.687C168.514 148.39 168.85 147.97 169.042 147.48C169.57 146.324 169.787 145.051 169.673 143.785C169.559 142.52 169.117 141.306 168.391 140.263Z" fill="black"/>
</g>
<path d="M170.02 139.151C170.02 139.151 169.748 135.699 168.263 135.471L166.779 135.243C166.779 135.243 165.806 132.663 164.443 132.507C163.388 132.479 162.339 132.681 161.369 133.097C161.369 133.097 160.418 131.568 158.989 131.323C157.744 131.109 156.475 131.071 155.219 131.212L148.236 132.585C148.301 133.085 148.515 133.554 148.85 133.931C149.185 134.308 149.626 134.575 150.115 134.698C150.981 134.968 151.883 135.107 152.79 135.109C153.776 135.062 154.755 134.921 155.714 134.687C155.714 134.687 149.904 144.272 150.616 145.54C151.327 146.807 153.112 146.218 153.396 146.14C153.679 146.062 159.512 138.412 159.512 138.412C159.512 138.412 154.675 148.514 155.481 149.943C156.287 151.372 157.744 150.433 158.144 150.499C158.544 150.566 159.812 148.492 159.812 148.492C159.812 148.492 161.591 152.167 163.832 149.46C164.493 148.629 165.088 147.748 165.611 146.824L167.713 142.254L168.508 141.993C168.508 141.993 166.512 147.158 167.396 147.625C168.28 148.092 169.169 148.031 170.393 145.651C170.949 144.539 171.788 143.099 171.994 142.054C172.074 141.63 172.025 141.192 171.855 140.796C171.685 140.4 171.4 140.063 171.038 139.83L170.02 139.151Z" fill="#FFBF9D"/>
<path d="M165.055 139.368C165.188 139.418 164.377 141.809 162.864 144.522C161.352 147.236 159.745 149.193 159.634 149.104C159.523 149.015 160.891 146.935 162.381 144.255C163.871 141.575 164.916 139.329 165.055 139.368Z" fill="#894943"/>
<path d="M161.413 134.647C161.485 134.647 161.474 134.964 161.308 135.404C161.076 135.952 160.779 136.471 160.424 136.949C159.59 138.061 159.106 138.951 158.978 138.934C158.85 138.917 158.917 138.612 159.084 138.178C159.314 137.628 159.611 137.109 159.968 136.632C160.802 135.543 161.285 134.625 161.413 134.647Z" fill="#894943"/>
<path d="M156.643 132.457C156.793 132.457 156.815 133.219 156.487 134.058C156.159 134.898 155.642 135.437 155.52 135.354C155.397 135.27 155.67 134.637 155.97 133.864C156.27 133.091 156.493 132.435 156.643 132.457Z" fill="#894943"/>
<g opacity="0.3">
<path d="M102.889 151.889C102.899 152.119 102.955 152.345 103.053 152.553C103.151 152.762 103.29 152.949 103.46 153.104C103.63 153.259 103.83 153.379 104.047 153.456C104.263 153.534 104.493 153.568 104.723 153.557C106.469 153.557 120.119 151.194 120.436 150.872C120.753 150.549 117.739 132.485 117.739 132.485L102.889 151.889Z" fill="black"/>
</g>
<path d="M117.912 106.258L99.7695 128.804C99.3525 135.17 99.0189 142.843 99.5693 149.204C99.6527 150.16 99.8307 151.261 100.648 151.761C101.304 152.162 102.138 152.039 102.872 151.9L119.496 148.82C118.423 136.332 116.544 122.499 117.912 106.258Z" fill="#263238"/>
</svg>
