<svg width="22" height="22" viewBox="0 0 22 22" fill="none" xmlns="http://www.w3.org/2000/svg">
<path d="M17.4167 0.916504H4.58333C3.3682 0.917959 2.20326 1.40131 1.34403 2.26054C0.484808 3.11977 0.00145554 4.28471 0 5.49984L0 16.4998C0.00145554 17.715 0.484808 18.8799 1.34403 19.7391C2.20326 20.5984 3.3682 21.0817 4.58333 21.0832H17.4167C18.6318 21.0817 19.7967 20.5984 20.656 19.7391C21.5152 18.8799 21.9985 17.715 22 16.4998V5.49984C21.9985 4.28471 21.5152 3.11977 20.656 2.26054C19.7967 1.40131 18.6318 0.917959 17.4167 0.916504ZM4.58333 2.74984H17.4167C17.9656 2.75092 18.5016 2.91623 18.9557 3.22449C19.4099 3.53276 19.7614 3.96987 19.965 4.47959L12.9452 11.5003C12.4286 12.0149 11.7291 12.3038 11 12.3038C10.2709 12.3038 9.57144 12.0149 9.05483 11.5003L2.035 4.47959C2.23864 3.96987 2.59015 3.53276 3.04429 3.22449C3.49844 2.91623 4.03445 2.75092 4.58333 2.74984ZM17.4167 19.2498H4.58333C3.85399 19.2498 3.15451 18.9601 2.63879 18.4444C2.12306 17.9287 1.83333 17.2292 1.83333 16.4998V6.87484L7.75867 12.7965C8.61908 13.6547 9.78474 14.1367 11 14.1367C12.2153 14.1367 13.3809 13.6547 14.2413 12.7965L20.1667 6.87484V16.4998C20.1667 17.2292 19.8769 17.9287 19.3612 18.4444C18.8455 18.9601 18.146 19.2498 17.4167 19.2498Z" fill="#CED4DA"/>
</svg>
